<?xml version="1.0" encoding="utf-8"?>
<!-- Generator: Adobe Illustrator 28.1.0, SVG Export Plug-In . SVG Version: 6.00 Build 0)  -->
<svg version="1.1" id="Artwork" xmlns="http://www.w3.org/2000/svg" xmlns:xlink="http://www.w3.org/1999/xlink" x="0px" y="0px"
	 viewBox="0 0 354 76" style="enable-background:new 0 0 354 76;" xml:space="preserve">
<style type="text/css">
	.st0{fill:#007CC1;}
	.st1{fill:#183E75;}
	.st2{fill:#009EDF;}
	.st3{fill:#0069B4;}
	.st4{fill:#004994;}
</style>
<g>
	<g>
		<path class="st0" d="M0,49.2444038c0.0784987,0,0.1576444-0.0097046,0.23679-0.0295448
			c0.0784987,0,0.1576444-0.004528,0.2365744-0.0148811c0.0787143-0.0097046,0.1673489-0.0146637,0.2663349-0.0146637
			c0.1777003,0,0.3698497,0.0250168,0.5770948,0.0739708c0.2070296,0.0493851,0.4041389,0.138237,0.5917594,0.2663345
			c0.1874048,0.1285324,0.3450493,0.3157196,0.47358,0.5622139c0.1280997,0.2469254,0.1923649,0.5673904,0.1923649,0.9616089
			v15.772419h6.8651857c0.6310091,0,1.0847483,0.1531143,1.3612194,0.4584808
			c0.2760391,0.3062286,0.4142742,0.6758652,0.4142742,1.1097641c0,0.0987701-0.0051756,0.1876221-0.0148802,0.2661209
			c-0.0101357,0.079361-0.0148802,0.1483688-0.0148802,0.2074585v0.2070312H0V49.2444038z"/>
		<path class="st0" d="M22.9921398,65.8453674c0,0.4731522,0.0194073,0.8432159,0.0590897,1.1097641
			c0.039465,0.2661209,0.1134338,0.4636612,0.2221241,0.5917587c0.1080437,0.1285324,0.2559834,0.2122116,0.443821,0.2514572
			c0.1871891,0.0396805,0.4289379,0.0590897,0.7250328,0.0590897v1.1835175
			c-0.1777,0.0595245-0.394865,0.1082611-0.6510639,0.1479416c-0.2566299,0.0396805-0.5229645,0.0595245-0.7990036,0.0595245
			c-0.6191483,0-1.158287-0.1237869-1.6178513-0.3700714c-0.4595623-0.2462769-0.7291317-0.6853485-0.8087082-1.3167877
			c-0.4932041,0.4934158-1.0851803,0.9126511-1.7754936,1.2576981c-0.6907463,0.3450546-1.5977936,0.5175781-2.7224388,0.5175781
			c-0.5130453,0-1.0310497-0.0590897-1.5533686-0.177269c-0.5229645-0.1186142-0.9965448-0.3351288-1.4205246-0.6512833
			c-0.4244099-0.3152847-0.7744198-0.7397003-1.0504589-1.2723694c-0.2764702-0.5326691-0.4142742-1.2132797-0.4142742-2.0418243
			c0-1.0252304,0.2611589-1.8641319,0.7841244-2.5149803c0.5225334-0.6512794,1.1688538-1.1641083,1.9383135-1.5389175
			c0.7694597-0.374382,1.5928335-0.631012,2.470768-0.7694626c0.8777199-0.1375885,1.6816845-0.2169495,2.4118938-0.2367897
			c0.1774845,0,0.3845139,0,0.6213055,0c0.2367897,0,0.443819,0.0103531,0.6215191,0.0297623v-0.443821
			c0-0.8876381-0.2122059-1.5635033-0.6361847-2.0271645c-0.4246254-0.4632263-1.2382946-0.6952744-2.4414387-0.6952744
			c-0.88764,0-1.6376896,0.1138687-2.2488585,0.3403053c-0.6118155,0.2268715-1.2035751,0.5378456-1.7754936,0.9320641h-0.2958803
			c-0.1582909-0.2561989-0.2913504-0.5326691-0.3996096-0.8285484c-0.1086903-0.2958794-0.1626043-0.5326691-0.1626043-0.7103691
			c0-0.2557678,0.1576443-0.4977341,0.4733639-0.7246056c0.3152885-0.2268677,0.7250347-0.4291534,1.2279444-0.6068535
			c0.5031242-0.1777,1.060379-0.3152885,1.671979-0.4140587c0.6113834-0.0987701,1.2132797-0.1479416,1.8050385-0.1479416
			c1.0062504,0,1.8457985,0.1082611,2.5195065,0.3252106c0.673708,0.2173805,1.2201805,0.5430183,1.6396313,0.9764862
			c0.4188023,0.4343338,0.7133884,0.97649,0.88311,1.6277695c0.1697216,0.6508522,0.2546902,1.4009018,0.2546902,2.2488594
			V65.8453674z M20.5064907,62.0575905h-0.8580952c-0.6316547,0-1.272583,0.0396805-1.9234333,0.1181793
			c-0.6510639,0.079361-1.2430401,0.2273026-1.7754936,0.443821c-0.53267,0.2173805-0.9667845,0.5180054-1.3021297,0.9027367
			c-0.3355598,0.3847275-0.5031242,0.8928108-0.5031242,1.5238228c0,0.5917587,0.1777,1.1149368,0.5326691,1.5686798
			c0.3551855,0.4537354,1.015955,0.6806107,1.9827404,0.6806107c0.5126133,0,1.0010738-0.0741882,1.4647331-0.2221298
			c0.4632282-0.147934,0.8729744-0.3299484,1.2279434-0.5473328c0.3551846-0.2169495,0.6364002-0.4537354,0.8434296-0.7103653
			c0.2072449-0.2562027,0.3107605-0.5029144,0.3107605-0.7397003V62.0575905z"/>
		<path class="st0" d="M35.2133522,60.7554626c0-0.3743782-0.0049629-0.7345238-0.0146675-1.0800056
			c-0.0103493-0.345047-0.0642624-0.6659431-0.1628189-0.9618225c-0.1382332-0.5128288-0.4244118-0.9070473-0.8580933-1.1835213
			c-0.43433-0.2760391-1.0754776-0.4144897-1.9234352-0.4144897c-0.5527248,0-1.0608101,0.0642662-1.5240383,0.1923676
			c-0.4636593,0.1285286-0.8580952,0.2915649-1.1837349,0.4882431c-0.3254242,0.1975403-0.5768795,0.4244118-0.7545795,0.6806107
			C28.6145,58.7334747,28.52565,58.9901047,28.52565,59.2463036v9.8244133h-2.5151939V48.0904312h0.1479416
			c0.0392475,0,0.0933781-0.0047455,0.1628189-0.0148811c0.0687943-0.0097046,0.1330605-0.0146637,0.1923656-0.0146637
			c0.5520782,0,1.0209141,0.1382332,1.4054279,0.4142761c0.3847294,0.2764702,0.577095,0.7890816,0.577095,1.5387001v6.5690918
			c0.5128288-0.5719185,1.1638947-1.0058174,1.9529781-1.3016968c0.7888699-0.2958794,1.6275539-0.443821,2.5154095-0.443821
			c0.6903152,0,1.2969551,0.0841064,1.8199196,0.2514534c0.522316,0.1677818,0.9661369,0.3946533,1.331459,0.6806107
			c0.3648872,0.2859612,0.6659431,0.6167755,0.9025192,0.9911537c0.2367897,0.3748093,0.4041367,0.7694588,0.5031242,1.1835175
			c0.0985527,0.3950844,0.1576424,0.8337288,0.1774826,1.3167953c0.0194092,0.4839325,0.0297623,0.9523354,0.0297623,1.4056435
			v8.4041061h-2.5154076V60.7554626z"/>
		<path class="st0" d="M46.7244072,67.3545303c0.5719185,0,1.06987-0.0590897,1.4942818-0.1777039
			c0.4239769-0.1181793,0.788868-0.2661209,1.094883-0.4438171c0.305584-0.1777039,0.5669594-0.3597183,0.7841225-0.5473328
			c0.2169495-0.1871948,0.3944359-0.3597183,0.5326729-0.5180054c0.2169495,0.2764664,0.4093132,0.5723495,0.5770912,0.8876343
			c0.1673508,0.3157196,0.2514572,0.5624313,0.2514572,0.7401352c0,0.1591492-0.0493851,0.3239136-0.1479416,0.4938507
			c-0.0989838,0.1703644-0.2663345,0.345047-0.5031242,0.5249023c-0.4539566,0.3403091-1.0355797,0.6258392-1.7457314,0.8552933
			c-0.7103729,0.2298889-1.5684662,0.345047-2.574501,0.345047c-0.927536,0-1.8005104-0.1332703-2.6189232-0.3993912
			c-0.8188438-0.2665482-1.5367622-0.6952744-2.1541862-1.287468c-0.6176376-0.5917587-1.1058807-1.3655319-1.4647331-2.3226089
			c-0.3592834-0.9566498-0.5387077-2.1255035-0.5387077-3.5065651c0-1.2430382,0.1822281-2.3178673,0.5475502-3.2257767
			c0.3646736-0.9070473,0.8434296-1.6519241,1.4351883-2.2337646c0.5917587-0.5818367,1.2674103-1.010994,2.0269508-1.2874641
			c0.7593231-0.2760391,1.5434456-0.4140587,2.3525887-0.4140587c1.006031,0,1.8688698,0.1677818,2.5891609,0.5029106
			c0.7198601,0.3355598,1.3066597,0.7841225,1.7608299,1.3465538c0.4535255,0.5620003,0.7886543,1.2128487,1.0060349,1.95298
			c0.216732,0.7396965,0.3254242,1.5044136,0.3254242,2.2932816c0,0.2764702-0.0049591,0.5576859-0.0146637,0.8432121
			c-0.0101357,0.2863922-0.0347214,0.5576859-0.0739708,0.8138885h-9.3212891
			c0.0590897,1.4315186,0.4386444,2.5831223,1.1390953,3.4556656
			C44.1839828,66.9184723,45.2642021,67.3545303,46.7244072,67.3545303z M49.2396011,60.696373
			c0-0.5326691-0.0541306-1.0256577-0.1623878-1.4794006c-0.1080437-0.4537392-0.2898407-0.8531342-0.5449638-1.1986122
			c-0.2553368-0.3450508-0.5941315-0.6163445-1.0163841-0.8138847c-0.4226837-0.1966782-0.9381027-0.2958794-1.5471153-0.2958794
			c-1.0213432,0-1.8608932,0.3355598-2.5188599,1.0062485c-0.6583977,0.6706886-1.0265198,1.598011-1.1050186,2.7815285H49.2396011z
			"/>
		<path class="st0" d="M59.5162468,70.9943695c-0.2173805,0.6310043-0.4546051,1.232254-0.711235,1.8050385
			c-0.257061,0.5719147-0.5727806,1.0696487-0.9482384,1.4940567c-0.3754539,0.4239807-0.8345871,0.7642899-1.3773918,1.0209198
			c-0.5432358,0.2561951-1.1999092,0.3847275-1.9695854,0.3847275c-0.7509117,0-1.3780403-0.107399-1.8813782-0.3208923
			c-0.5039902-0.2143631-0.755661-0.5451813-0.755661-0.9924469c0-0.2730255,0.0739708-0.5559616,0.2219124-0.8496857
			c0.1481552-0.2941589,0.301487-0.5494919,0.4597778-0.7664413c0.1580734,0.1375885,0.399826,0.300621,0.7258949,0.4882431
			c0.3258591,0.1871872,0.7360344,0.2812119,1.2303162,0.2812119c0.6911774,0,1.2492943-0.2583542,1.6741371-0.7746353
			c0.4246254-0.5162735,0.8050423-1.3107529,1.1412506-2.3829956l0.4147072-1.3405151h-1.0051727L51.9467278,55.310585
			c0.4142761-0.1574287,0.848175-0.2367897,1.3021317-0.2367897c0.5128288,0,0.9271011,0.1682129,1.2428207,0.5033417
			c0.3152924,0.3355598,0.5520821,0.7297783,0.7101555,1.1835175l3.2551079,10.0905342l3.2551079-9.8239822
			c0.0590897-0.2169495,0.1378059-0.4390755,0.2365761-0.665947c0.0985527-0.2264366,0.2318306-0.4386444,0.3996086-0.6361847
			c0.1673508-0.1971092,0.3698502-0.3554001,0.6066399-0.4735794c0.2365761-0.1181793,0.5223198-0.1777,0.8580933-0.1777
			c0.3944359,0,0.7591133,0.0888519,1.094883,0.266552L59.5162468,70.9943695z"/>
		<path class="st0" d="M72.6162567,57.6482925h9.4101334v-8.4038887c0.0784988,0,0.1576462-0.0097046,0.2365799-0.0295448
			c0.0787125,0,0.1576462-0.004528,0.2367859-0.0148811c0.0784988-0.0097046,0.1673508-0.0146637,0.2663345-0.0146637
			c0.1774902,0,0.3698502,0.0250168,0.577095,0.0739708c0.2070312,0.0493851,0.4041443,0.138237,0.5917587,0.2663345
			c0.1871948,0.1285324,0.3448334,0.3157196,0.4733658,0.5622139c0.1280975,0.2469254,0.1923676,0.5673904,0.1923676,0.9616089
			v18.0212746h-2.5742874V59.897583h-9.4101334v9.1731339h-2.574501v-19.826313
			c0.0787125,0,0.1576462-0.0097046,0.2367935-0.0295448c0.0784988,0,0.1576385-0.004528,0.2367859-0.0148811
			c0.0784988-0.0097046,0.1673508-0.0146637,0.2661209-0.0146637c0.1971054,0,0.4041367,0.0250168,0.621521,0.0739708
			c0.2169495,0.0493851,0.4142761,0.138237,0.5917587,0.2663345c0.1776962,0.1285324,0.3256378,0.3157196,0.4440308,0.5622139
			c0.1181793,0.2469254,0.1774902,0.5673904,0.1774902,0.9616089V57.6482925z"/>
		<path class="st0" d="M99.7811203,62.0575905c0,0.9665718-0.1184006,1.8990669-0.354538,2.7961922
			c-0.2363586,0.897995-0.6150513,1.6920395-1.1365128,2.3821335c-0.5216675,0.6909637-1.1958084,1.243042-2.0224152,1.6570969
			c-0.826828,0.4144974-1.8304901,0.621521-3.0114212,0.621521s-2.1800613-0.1975403-2.9965363-0.5917587
			c-0.8171158-0.3942184-1.4815521-0.9268875-1.9928741-1.5980072c-0.5117493-0.6702576-0.88591-1.4543839-1.1220551-2.3523712
			c-0.2363586-0.8975601-0.3543243-1.8395462-0.3543243-2.8259544s0.1378021-1.9236488,0.413414-2.8112907
			c0.2756042-0.8876381,0.6890182-1.6618423,1.2400208-2.3230438c0.5512161-0.6607666,1.2350616-1.1882629,2.0519638-1.5829124
			c0.8166885-0.3946495,1.7765732-0.5917587,2.8787918-0.5917587c1.161087,0,2.1449127,0.1971092,2.9521103,0.5917587
			c0.8069839,0.3946495,1.4662399,0.9221458,1.9779968,1.5829124c0.5115356,0.6612015,0.8854828,1.4254875,1.1218414,2.2932854
			C99.6627197,60.1740532,99.7811203,61.0910225,99.7811203,62.0575905z M97.1475296,62.0575905
			c0-0.6111679-0.0545654-1.2180214-0.1628189-1.8197021c-0.108696-0.6016808-0.3008423-1.144268-0.5768814-1.6277695
			c-0.2766876-0.4830704-0.6612015-0.8729744-1.1541901-1.1688538c-0.4934235-0.2958794-1.1345673-0.443821-1.9234314-0.443821
			c-0.7498398,0-1.375885,0.1479416-1.8790131,0.443821c-0.5031204,0.2958794-0.9025192,0.6857834-1.1983948,1.1688538
			c-0.2960968,0.4835014-0.5083008,1.0260887-0.6363983,1.6277695c-0.1285324,0.6016808-0.1921539,1.2085342-0.1921539,1.8197021
			c0,0.6116028,0.0539169,1.23312,0.1626053,1.8641281c0.1082611,0.6318703,0.3107605,1.1986198,0.6066437,1.7015266
			c0.2958755,0.5033417,0.6903076,0.9173965,1.1837311,1.243042c0.492775,0.3252029,1.1244278,0.4882431,1.8938904,0.4882431
			c0.7886505,0,1.4397125-0.1630402,1.95298-0.4882431c0.512825-0.3256454,0.9070435-0.7397003,1.1837311-1.243042
			c0.2760391-0.5029068,0.4681854-1.0696564,0.5768814-1.7015266
			C97.0929642,63.2907104,97.1475296,62.6691933,97.1475296,62.0575905z"/>
		<path class="st0" d="M109.542778,55.6362267c0.3959427,0.2173805,0.6627045,0.4192352,0.8013763,0.6064224
			c0.1386642,0.1880531,0.208107,0.3700676,0.208107,0.5477676c0,0.2173805-0.0545654,0.4688339-0.163681,0.754364
			c-0.1091232,0.2863884-0.2428284,0.5676041-0.4009094,0.8436432l-0.416214,0.0293312
			c-0.3364258-0.4140587-0.8270416-0.7737732-1.4707718-1.0800056c-0.6439514-0.3058014-1.3325348-0.4584846-2.0649033-0.4584846
			c-0.2579269,0-0.5400009,0.0245857-0.8470993,0.0737534c-0.3068771,0.0496025-0.5945587,0.1384544-0.8617554,0.2661209
			c-0.2671967,0.1289635-0.4901886,0.3109741-0.6685333,0.5477638c-0.178566,0.2367935-0.2671967,0.5326729-0.2671967,0.8876419
			c0,0.6314392,0.2818604,1.0851784,0.8464432,1.3612175c0.5641556,0.2764702,1.2622375,0.5132599,2.0946655,0.7103691
			c0.5941315,0.1380196,1.1682053,0.3105469,1.7230911,0.5175743c0.554451,0.2070312,1.0446396,0.4735794,1.4703445,0.799221
			c0.4259186,0.3252106,0.762558,0.7349548,1.0103455,1.2279434c0.2473526,0.4934196,0.3711395,1.1050224,0.3711395,1.8347969
			c0,0.7297821-0.1483688,1.3659668-0.4451141,1.9085541c-0.2969513,0.5425949-0.6926804,0.9963303-1.1874008,1.3612213
			c-0.4947128,0.3653183-1.0730972,0.6413574-1.7362442,0.8285522c-0.6629257,0.1871872-1.3504333,0.2812119-2.0625305,0.2812119
			c-0.692688,0-1.3159332-0.0547791-1.8697357-0.1630325c-0.5540161-0.108696-1.0191879-0.241539-1.3946457-0.3993988
			c-0.4947128-0.1971054-0.8410568-0.3993912-1.0388107-0.6068497c-0.1979752-0.2070312-0.2969589-0.418808-0.2969589-0.6361847
			c0-0.2557678,0.0690079-0.5223236,0.2072449-0.79879c0.1378021-0.2760391,0.3152924-0.5917587,0.5326691-0.9467316
			c0.1378021,0.1181793,0.3299561,0.2661209,0.5768814,0.4438171c0.2464905,0.177269,0.5423737,0.3450546,0.8878555,0.5029144
			c0.3448334,0.158287,0.725029,0.2911301,1.1393051,0.3993912c0.4142761,0.1086884,0.8580933,0.1630402,1.331459,0.1630402
			c0.3551865,0,0.7000198-0.0349426,1.0357971-0.1043777c0.3351288-0.0690155,0.6361847-0.1833115,0.9025192-0.3424683
			c0.2663345-0.1591492,0.4830704-0.3773956,0.651062-0.655159c0.1673508-0.2777634,0.2514572-0.6254044,0.2514572-1.0424805
			s-0.0888519-0.7595367-0.2663345-1.0273819c-0.1774826-0.26828-0.4142761-0.4916954-0.7101517-0.6706886
			c-0.2958832-0.178566-0.6264801-0.3226242-0.9913712-0.4317436c-0.3653259-0.1091232-0.7351761-0.2035789-1.1095505-0.2829399
			c-0.5725632-0.1177483-1.1199036-0.2700043-1.6424332-0.4567604c-0.5229645-0.1867561-0.9866257-0.4373512-1.3907623-0.7517776
			c-0.4045715-0.3144226-0.7299957-0.7082138-0.9764938-1.1796341c-0.2469254-0.4714241-0.3698502-1.0411873-0.3698502-1.7097206
			c0-0.6486931,0.138237-1.2240601,0.4155731-1.7252464c0.2769012-0.5011826,0.6527863-0.913517,1.1276627-1.2382927
			c0.4748688-0.3239174,1.0140152-0.5693321,1.6178513-0.7366829c0.6034012-0.1669159,1.2318192-0.2505913,1.8850403-0.2505913
			c0.7517776,0,1.4395065,0.0789299,2.0627518,0.2363586C108.6672134,55.2320862,109.1668854,55.4192772,109.542778,55.6362267z"/>
		<path class="st0" d="M113.4222031,55.0970879c0.473587,0,0.8826828,0.1086884,1.2281647,0.3256378
			c0.3448334,0.2173805,0.5768738,0.5818405,0.6952744,1.0946693c0.3745956-0.4597778,0.8975601-0.8548584,1.5684586-1.1848106
			c0.6702652-0.3303871,1.5091629-0.4951477,2.5151978-0.4951477c0.7694626,0,1.494278,0.1285324,2.1748886,0.3843002
			c0.6806107,0.2566299,1.2822876,0.6659431,1.8050385,1.2283745c0.5225296,0.5619965,0.9368057,1.2922096,1.243042,2.1897697
			c0.3055801,0.8979874,0.4584808,1.9974022,0.4584808,3.299099c0,1.4798317-0.1824417,2.7077713-0.5473328,3.6842651
			c-0.3653259,0.9764862-0.8386841,1.7511215-1.420311,2.3230438c-0.5822678,0.5723495-1.228157,0.9764862-1.9383163,1.2132797
			c-0.7101517,0.2367859-1.4008942,0.3549652-2.071373,0.3549652c-1.0653381,0-1.9040222-0.1824417-2.5154037-0.5473328
			c-0.6116028-0.3648911-1.0258789-0.6952744-1.2428284-0.9911499v7.4862747h-2.5151901V55.1268463h0.1774826
			c0.0593033,0,0.1183929-0.0047455,0.1777039-0.0150948C113.2742691,55.1022606,113.3430634,55.0970879,113.4222031,55.0970879z
			 M122.4180679,62.1020164c0-0.7077827-0.0642624-1.3767471-0.1923599-2.0064621
			c-0.1285324-0.6292839-0.3357773-1.1701469-0.621521-1.6225929c-0.2861786-0.452446-0.6709061-0.8117294-1.1539764-1.0769844
			c-0.4837112-0.265255-1.0800018-0.3985329-1.7903748-0.3985329c-0.9469452,0-1.7310638,0.1971092-2.3523712,0.5904655
			c-0.621521,0.3933563-0.9322815,0.8656425-0.9322815,1.4159966v6.7276001
			c0.1184006,0.1578598,0.2760391,0.3295212,0.4735794,0.5162735c0.1968994,0.1871948,0.4386444,0.3592834,0.7250366,0.516716
			c0.2857437,0.1569977,0.6111679,0.2950134,0.9764862,0.4127655c0.3646774,0.1186066,0.7545853,0.177269,1.1688614,0.177269
			c1.2229767,0,2.14534-0.452446,2.7666473-1.357338C122.1073074,65.0927277,122.4180679,63.7940521,122.4180679,62.1020164z"/>
		<path class="st0" d="M130.0522919,50.6056252c0,0.4541702-0.1531219,0.833725-0.4587097,1.1393089
			c-0.306015,0.306015-0.6857758,0.4586983-1.1393127,0.4586983c-0.453949,0-0.8335037-0.1526833-1.1393051-0.4586983
			c-0.306015-0.305584-0.4584808-0.6851387-0.4584808-1.1393089c0-0.492775,0.1524658-0.8973465,0.4584808-1.2132797
			c0.3058014-0.3152885,0.6853561-0.4733658,1.1393051-0.4733658c0.453537,0,0.8332977,0.1580772,1.1393127,0.4733658
			C129.8991699,49.7082787,130.0522919,50.1128502,130.0522919,50.6056252z M127.3003006,55.0147057h0.1774826
			c0.0392532,0,0.0933838-0.0047455,0.1628265-0.0146637c0.0687943-0.009922,0.1330566-0.0146637,0.1923599-0.0146637
			c0.5520859,0,1.0209122,0.1431923,1.4054337,0.4287224c0.3847198,0.2863922,0.5770874,0.8043976,0.5770874,1.5535851v9.4396858
			c0,0.5723495,0.0836792,0.9764862,0.2514648,1.2132797c0.1675568,0.2367859,0.557251,0.3554001,1.1688538,0.3554001v1.0649033
			c-0.1774902,0.0595245-0.4192352,0.1082611-0.724823,0.1479416c-0.3062286,0.0396805-0.6066437,0.0595245-0.9025269,0.0595245
			c-0.5725555,0-1.0112-0.0888519-1.3167877-0.2665558c-0.3062286-0.177269-0.5326691-0.4140549-0.6806107-0.709938
			c-0.1481552-0.2958755-0.2367859-0.6262665-0.2663345-0.9915848c-0.0297623-0.3648911-0.044426-0.7250366-0.044426-1.0800018
			V55.0147057z"/>
		<path class="st0" d="M133.2185364,67.2954407c-0.1382294-0.3748093-0.2219086-0.7845612-0.2516632-1.2283783
			c-0.029541-0.4438171-0.0442047-0.8824615-0.0442047-1.3167953V50.9015045h0.177475
			c0.0392609,0,0.0933838-0.004528,0.1628265-0.0146637c0.0687866-0.0097046,0.1330566-0.0148811,0.1921539-0.0148811
			c0.5326691,0,0.996109,0.1373711,1.390976,0.4114685c0.3942108,0.2747459,0.5917511,0.7739906,0.5917511,1.4985924v2.3512955
			h4.4090881v2.1600075h-4.4090881v7.6346474c0,1.6178513,0.6407166,2.4265594,1.9234314,2.4265594
			c0.3152924,0,0.6111755-0.0543442,0.8876495-0.1630402c0.2760315-0.1078262,0.5225372-0.2363586,0.7399139-0.3847275
			c0.2167358-0.1479416,0.3993988-0.2907028,0.5473328-0.4287262c0.147934-0.1380157,0.2413177-0.2367859,0.2812195-0.2958755
			c0.2367859,0.2958755,0.438858,0.5818405,0.6066284,0.8578796c0.1673584,0.2764664,0.2514648,0.5430222,0.2514648,0.7992172
			c0,0.177269-0.0888519,0.3696365-0.2663422,0.5766678c-0.177475,0.2074585-0.424408,0.3998184-0.7397003,0.5770874
			c-0.3159332,0.1777039-0.7056274,0.3256454-1.1688538,0.4438248c-0.4638672,0.1186066-0.9719543,0.1776962-1.5240326,0.1776962
			c-1.0258789,0-1.8447266-0.1975403-2.4561005-0.5917587C133.9088593,68.5285568,133.4745331,67.9859695,133.2185364,67.2954407z"
			/>
		<path class="st0" d="M152.6596985,65.8453674c0,0.4731522,0.0194092,0.8432159,0.059082,1.1097641
			c0.0394745,0.2661209,0.1134338,0.4636612,0.2221222,0.5917587c0.1080475,0.1285324,0.2559967,0.2122116,0.4438324,0.2514572
			c0.1871796,0.0396805,0.4289398,0.0590897,0.7250214,0.0590897v1.1835175
			c-0.1776886,0.0595245-0.3948517,0.1082611-0.651062,0.1479416c-0.2566223,0.0396805-0.5229645,0.0595245-0.798996,0.0595245
			c-0.6191559,0-1.1582947-0.1237869-1.6178589-0.3700714c-0.4595642-0.2462769-0.729126-0.6853485-0.8087006-1.3167877
			c-0.4932098,0.4934158-1.0851898,0.9126511-1.7754974,1.2576981c-0.6907501,0.3450546-1.5977936,0.5175781-2.7224426,0.5175781
			c-0.5130463,0-1.0310516-0.0590897-1.55336-0.177269c-0.5229645-0.1186142-0.9965515-0.3351288-1.4205322-0.6512833
			c-0.424408-0.3152847-0.7744141-0.7397003-1.0504608-1.2723694c-0.2764587-0.5326691-0.4142761-1.2132797-0.4142761-2.0418243
			c0-1.0252304,0.2611694-1.8641319,0.7841339-2.5149803c0.5225372-0.6512794,1.1688538-1.1641083,1.9383087-1.5389175
			c0.769455-0.374382,1.5928345-0.631012,2.4707642-0.7694626c0.8777313-0.1375885,1.6816864-0.2169495,2.4118958-0.2367897
			c0.1774902,0,0.3845215,0,0.6213074,0s0.4438171,0.0103531,0.621521,0.0297623v-0.443821
			c0-0.8876381-0.212204-1.5635033-0.6361847-2.0271645c-0.4246216-0.4632263-1.2382965-0.6952744-2.4414368-0.6952744
			c-0.8876343,0-1.6376953,0.1138687-2.2488556,0.3403053c-0.6118164,0.2268715-1.2035828,0.5378456-1.7754974,0.9320641h-0.2958832
			c-0.1582947-0.2561989-0.2913513-0.5326691-0.3996124-0.8285484c-0.1086884-0.2958794-0.1625977-0.5326691-0.1625977-0.7103691
			c0-0.2557678,0.1576385-0.4977341,0.4733582-0.7246056c0.3152924-0.2268677,0.7250366-0.4291534,1.227951-0.6068535
			c0.5031281-0.1777,1.060379-0.3152885,1.6719818-0.4140587c0.6113739-0.0987701,1.2132721-0.1479416,1.8050385-0.1479416
			c1.0062408,0,1.8457947,0.1082611,2.5195007,0.3252106c0.6737061,0.2173805,1.2201843,0.5430183,1.6396332,0.9764862
			c0.418808,0.4343338,0.7133942,0.97649,0.8831024,1.6277695c0.1697235,0.6508522,0.2546997,1.4009018,0.2546997,2.2488594
			V65.8453674z M150.1740417,62.0575905h-0.8580933c-0.6316528,0-1.272583,0.0396805-1.9234314,0.1181793
			c-0.651062,0.079361-1.243042,0.2273026-1.7754974,0.443821c-0.5326691,0.2173805-0.9667816,0.5180054-1.302124,0.9027367
			c-0.335556,0.3847275-0.5031281,0.8928108-0.5031281,1.5238228c0,0.5917587,0.1777039,1.1149368,0.5326691,1.5686798
			c0.3551941,0.4537354,1.0159607,0.6806107,1.9827423,0.6806107c0.512619,0,1.0010681-0.0741882,1.4647369-0.2221298
			c0.4632263-0.147934,0.8729706-0.3299484,1.2279358-0.5473328c0.3551941-0.2169495,0.6363983-0.4537354,0.8434296-0.7103653
			c0.2072449-0.2562027,0.3107605-0.5029144,0.3107605-0.7397003V62.0575905z"/>
		<path class="st0" d="M158.1636658,66.2891922c0,0.2958755,0.0097046,0.5473328,0.029541,0.754364
			c0.0194092,0.2074585,0.0739746,0.3804169,0.1628113,0.5180054c0.0888519,0.1384506,0.2266541,0.2419586,0.4142761,0.3105392
			c0.1871948,0.0694427,0.4587097,0.1039505,0.8136749,0.1039505v1.0649033
			c-0.1774902,0.0595245-0.4192352,0.1082611-0.724823,0.1479416c-0.3062286,0.0396805-0.6066284,0.0595245-0.9025116,0.0595245
			c-0.5725708,0-1.0112152-0.0888519-1.316803-0.2665558c-0.3062286-0.177269-0.5326691-0.4140549-0.680603-0.709938
			c-0.1481628-0.2958755-0.2367859-0.6262665-0.2663422-0.9915848c-0.0297546-0.3648911-0.0444183-0.7250366-0.0444183-1.0800018
			V48.0904312h0.1774902c0.0392456,0,0.0933685-0.0047455,0.1628113-0.0148811
			c0.0688019-0.0097046,0.1330566-0.0146637,0.1923676-0.0146637c0.5520782,0,1.0209198,0.1431961,1.405426,0.4289398
			c0.3847351,0.2861748,0.5771027,0.8041801,0.5771027,1.5535812V66.2891922z"/>
		<path class="st0" d="M182.6060791,68.9874725c-0.2173767,0.0970459-0.453949,0.1794281-0.710144,0.2480087
			c-0.2566376,0.0672836-0.5031281,0.1013565-0.7399139,0.1013565c-0.7692566,0-1.4203186-0.2958832-1.9529877-0.8876419
			l-1.8641205-2.1306763c-0.8285522,0.9079132-1.7362518,1.6476059-2.7224426,2.2195282
			c-0.9868469,0.5719223-2.1306763,0.8583069-3.4325867,0.8583069c-1.124649,0-2.0862579-0.1630325-2.8852692-0.4882431
			c-0.798996-0.3256378-1.4602051-0.7547913-1.9825134-1.2874603c-0.5229645-0.5326767-0.9025269-1.1541901-1.1393127-1.8641281
			c-0.2367859-0.7103729-0.3551941-1.4500732-0.3551941-2.219532c0-0.8876381,0.1378174-1.6864281,0.4142761-2.3967972
			c0.2760468-0.7103729,0.6409302-1.3465576,1.0948944-1.9085541c0.4537354-0.5624313,0.9812317-1.0403252,1.5831299-1.4354057
			c0.6016693-0.3942184,1.2281494-0.7198601,1.8792114-0.97649h-0.0297546
			c-0.453949-0.5917587-0.7841187-1.1490135-0.9911499-1.6717644c-0.2072449-0.522316-0.3107605-1.1291733-0.3107605-1.8199158
			c0-0.670475,0.1378021-1.282074,0.4142761-1.8345871c0.2760315-0.5520782,0.6458893-1.0209122,1.1095428-1.4056435
			c0.4634399-0.3847275,1.0062561-0.6806068,1.6275635-0.8878555c0.6215057-0.2070274,1.2770996-0.3105431,1.9678497-0.3105431
			c0.8285522,0,1.5285645,0.093811,2.1011353,0.2809982c0.5719147,0.1878395,1.0651245,0.4194527,1.4794006,0.6954918
			c0.4336853,0.3355598,0.651062,0.6907463,0.651062,1.0653381c0,0.2566299-0.1086884,0.5324554-0.3254242,0.8285522
			c-0.2173767,0.2958794-0.4045715,0.5326691-0.5622101,0.7101517H176.62854
			c-0.4142761-0.3944321-0.8483887-0.7198563-1.3019104-0.97649c-0.4539642-0.2561989-1.0060425-0.3847275-1.6571045-0.3847275
			c-0.7101593,0-1.3167877,0.2024994-1.8199158,0.6066399c-0.5031281,0.4045677-0.7545776,0.9913673-0.7545776,1.7606125
			c0,0.5134773,0.1183929,0.9965439,0.3551788,1.4498558c0.2365723,0.4541702,0.5423737,0.9173965,0.9171906,1.390976
			c0.7496185,0.9467316,1.5684662,1.9633331,2.4561005,3.0480804c0.8878479,1.0851784,1.7164001,2.1009178,2.4856415,3.0476456
			c0.2760468-0.6900978,0.4929962-1.4151306,0.651062-2.1746712c0.1576538-0.7595406,0.2465057-1.5635033,0.2663422-2.4118958
			c0-0.2169495,0-0.4684029,0-0.7547951c0-0.2855263-0.0101318-0.5568199-0.029541-0.8134537h4.764267v1.9232216h-2.6040497
			c-0.0399017,1.125721-0.1975403,2.2259979-0.4735718,3.3012581c-0.276474,1.0756912-0.6316681,2.0280266-1.0653381,2.8570099
			L182.6060791,68.9874725z M171.2725067,67.2359161c1.0062561,0,1.8591766-0.2216949,2.559845-0.6655121
			c0.7000122-0.4438171,1.3855743-1.0998459,2.056488-1.968071c-0.8285522-1.0058212-1.6376953-2.006897-2.4265594-3.0036583
			c-0.7893066-0.9958954-1.588089-1.9870491-2.3968048-2.9738922c-0.5132599,0.2173805-0.9965363,0.4735794-1.450058,0.7694588
			c-0.4539642,0.2958832-0.8483887,0.6413612-1.1835175,1.0355797c-0.3357849,0.3950806-0.6021118,0.8389015-0.7990112,1.3318901
			c-0.1975403,0.4934196-0.2958832,1.0355797-0.2958832,1.6273384c0,1.0851784,0.3403015,1.9974022,1.0209198,2.7375374
			C169.0385284,66.8662872,170.0098419,67.2359161,171.2725067,67.2359161z"/>
		<path class="st0" d="M191.483551,49.1853142c0.4144897,0,0.7444458,0.0989876,0.9915924,0.2958794
			c0.2462769,0.1973267,0.4481201,0.4636612,0.6064148,0.7990074l5.518631,11.9550896l5.4893036-11.8959999
			c0.2156525-0.4733658,0.4848022-0.7841263,0.8082733-0.9320641c0.3230591-0.1479416,0.6417999-0.2219124,0.9557953-0.2219124
			c0.2544708,0,0.4994507,0.0198402,0.7345276,0.0590897c0.2350616,0.0398979,0.4213867,0.0791473,0.558548,0.1183968
			l1.381485,19.7079163h-2.3968048l-1.0653381-15.5651703l-5.2525024,11.0674515h-2.5149841l-5.0157166-10.5645409
			l-1.095108,15.0622597h-2.4558868l1.4794006-19.7079163c0.1380157-0.0392494,0.3152924-0.0784988,0.5326691-0.1183968
			C190.9608002,49.2051544,191.207077,49.1853142,191.483551,49.1853142z"/>
		<path class="st0" d="M217.1979218,67.3545303c0.5719147,0,1.0700836-0.0590897,1.4944916-0.1777039
			c0.4239807-0.1181793,0.7888641-0.2661209,1.0946655-0.4438171c0.3058014-0.1777039,0.5671692-0.3597183,0.7845612-0.5473328
			c0.216507-0.1871948,0.3942108-0.3597183,0.5326691-0.5180054c0.216507,0.2764664,0.4088745,0.5723495,0.5766602,0.8876343
			c0.1673431,0.3157196,0.2518768,0.5624313,0.2518768,0.7401352c0,0.1591492-0.0495911,0.3239136-0.147934,0.4938507
			c-0.0991974,0.1703644-0.2665558,0.345047-0.5033417,0.5249023c-0.4541626,0.3403091-1.0355835,0.6258392-1.7459412,0.8552933
			c-0.7099457,0.2298889-1.5682526,0.345047-2.5745087,0.345047c-0.9273224,0-1.800293-0.1332703-2.6184845-0.3993912
			c-0.8190613-0.2665482-1.5372009-0.6952744-2.1544037-1.287468c-0.6176453-0.5917587-1.1058807-1.3655319-1.4647369-2.3226089
			c-0.3592834-0.9566498-0.5387115-2.1255035-0.5387115-3.5065651c0-1.2430382,0.1824493-2.3178673,0.5473328-3.2257767
			c0.3648987-0.9070473,0.8436584-1.6519241,1.4354095-2.2337646c0.5917664-0.5818367,1.2671967-1.010994,2.0271606-1.2874641
			c0.7591095-0.2760391,1.5432434-0.4140587,2.3523865-0.4140587c1.0062408,0,1.868866,0.1677818,2.5891571,0.5029106
			c0.7198639,0.3355598,1.3068695,0.7841225,1.7606049,1.3465538c0.4537506,0.5620003,0.7888794,1.2128487,1.0062561,1.95298
			c0.2169495,0.7396965,0.3256378,1.5044136,0.3256378,2.2932816c0,0.2764702-0.0051727,0.5576859-0.0150909,0.8432121
			c-0.0099182,0.2863922-0.0345001,0.5576859-0.073761,0.8138885h-9.3215027
			c0.0595245,1.4315186,0.4390717,2.5831223,1.1395264,3.4556656
			C214.6579285,66.9184723,215.7379303,67.3545303,217.1979218,67.3545303z M219.7133179,60.696373
			c0-0.5326691-0.0539093-1.0256577-0.1621704-1.4794006c-0.1082611-0.4537392-0.2898407-0.8531342-0.5451813-1.1986122
			c-0.2553253-0.3450508-0.5943451-0.6163445-1.0161591-0.8138847c-0.4226837-0.1966782-0.9385376-0.2958794-1.5471191-0.2958794
			c-1.021347,0-1.8611145,0.3355598-2.5192871,1.0062485c-0.6581879,0.6706886-1.0260925,1.598011-1.1050262,2.7815285H219.7133179z
			"/>
		<path class="st0" d="M235.7516479,69.0707169h-2.4558868v-1.2063751
			c-0.1582947,0.1600113-0.3554077,0.3403015-0.5921936,0.5400009c-0.2363586,0.2001266-0.5175781,0.379982-0.8432159,0.5400009
			s-0.695282,0.2950134-1.1097717,0.4049988c-0.4140472,0.1104202-0.8682251,0.1651917-1.3612061,0.1651917
			c-0.769043,0-1.5091705-0.1285248-2.219101-0.3847275c-0.7103729-0.2561951-1.3366394-0.6655121-1.8792267-1.2279434
			s-0.9717407-1.3021317-1.2870331-2.2195282c-0.3157196-0.9169693-0.473587-2.0366554-0.473587-3.3586235
			c0-1.3016968,0.1626129-2.4261284,0.4882507-3.3732872c0.3256378-0.9467278,0.7591095-1.720932,1.302124-2.3230438
			c0.54216-0.6012497,1.1735992-1.0502434,1.8938904-1.3461227c0.7198639-0.2958794,1.4647369-0.443821,2.2341919-0.443821
			c0.8876495,0,1.6420135,0.1479416,2.2635345,0.443821c0.6215057,0.2958794,1.1291656,0.6314392,1.523819,1.0058174v-8.1966438
			h0.1777039c0.0392456,0,0.0935822-0.0047455,0.1625977-0.0148811c0.0690155-0.0097046,0.1332703-0.0146637,0.1923676-0.0146637
			c0.5520782,0,1.0209198,0.1382332,1.4056396,0.4142761c0.3847351,0.2764702,0.5771027,0.7890816,0.5771027,1.5387001V69.0707169z
			 M226.1640167,62.0135994c0,0.7677345,0.0590973,1.4755135,0.1781311,2.1246376
			c0.1186066,0.6491241,0.3269348,1.215004,0.624115,1.6967773c0.2967377,0.481781,0.6879425,0.8557281,1.1735992,1.1214142
			c0.4852142,0.2652588,1.0847473,0.3981018,1.7981262,0.3981018c0.4753113,0,0.9161072-0.0586624,1.322403-0.177269
			c0.4058685-0.1177521,0.7578125-0.2652588,1.0549927-0.4425278c0.2967377-0.1768341,0.5249023-0.3838654,0.683197-0.6193619
			c0.1582947-0.2359314,0.2376556-0.47229,0.2376556-0.7086487v-6.9044304h0.0297546
			c-0.1194763-0.1177483-0.272583-0.2652588-0.4610748-0.4425278c-0.1880493-0.1768379-0.425705-0.3441849-0.7129517-0.5016136
			c-0.2868195-0.1569977-0.618927-0.2902756-0.9954681-0.3985329c-0.3760986-0.1082611-0.8022461-0.1621742-1.2775421-0.1621742
			c-1.1291809,0-2.0202637,0.4231186-2.6741333,1.2689209C226.4909515,59.1121635,226.1640167,60.3612442,226.1640167,62.0135994z"
			/>
		<path class="st0" d="M241.3737946,50.6056252c0,0.4541702-0.1531219,0.833725-0.4584961,1.1393089
			c-0.3062286,0.306015-0.6857758,0.4586983-1.1395264,0.4586983c-0.4541626,0-0.833725-0.1526833-1.1390839-0.4586983
			c-0.3062286-0.305584-0.4589233-0.6851387-0.4589233-1.1393089c0-0.492775,0.1526947-0.8973465,0.4589233-1.2132797
			c0.3053589-0.3152885,0.6849213-0.4733658,1.1390839-0.4733658c0.4537506,0,0.8332977,0.1580772,1.1395264,0.4733658
			C241.2206726,49.7082787,241.3737946,50.1128502,241.3737946,50.6056252z M238.621582,55.0147057h0.1777039
			c0.0392609,0,0.0935974-0.0047455,0.1626129-0.0146637c0.0690002-0.009922,0.1332703-0.0146637,0.1923676-0.0146637
			c0.5520782,0,1.0209045,0.1431923,1.4056396,0.4287224c0.3847198,0.2863922,0.5770874,0.8043976,0.5770874,1.5535851v9.4396858
			c0,0.5723495,0.0836792,0.9764862,0.2514648,1.2132797c0.1673431,0.2367859,0.557251,0.3554001,1.1688538,0.3554001v1.0649033
			c-0.1772766,0.0595245-0.4192352,0.1082611-0.7250366,0.1479416s-0.6064301,0.0595245-0.9023132,0.0595245
			c-0.5723419,0-1.0114136-0.0888519-1.3167877-0.2665558c-0.3062286-0.177269-0.5326691-0.4140549-0.680603-0.709938
			c-0.1479492-0.2958755-0.2368011-0.6262665-0.2665558-0.9915848c-0.0293274-0.3648911-0.0444336-0.7250366-0.0444336-1.0800018
			V55.0147057z"/>
		<path class="st0" d="M250.4878387,67.3545303c0.5326691,0,1.0105591-0.0836792,1.4353943-0.2514572
			c0.4239807-0.1673508,0.7841339-0.3597107,1.0800018-0.577095c0.3549805-0.2367859,0.6702576-0.512825,0.9467316-0.8285446
			c0.1578674,0.1578598,0.3597107,0.3993912,0.6068573,0.725029c0.2462769,0.3252106,0.3696289,0.6262665,0.3696289,0.9023056
			c0,0.2803497-0.207016,0.6003876-0.621521,0.9600983c-0.3748016,0.3403091-0.9126434,0.6301498-1.6126709,0.869957
			c-0.7004395,0.2393799-1.5535736,0.3597107-2.5594025,0.3597107c-0.6318665,0-1.3271484-0.0888443-2.0862427-0.2661133
			c-0.759552-0.1777039-1.4720764-0.5326767-2.1380157-1.0653458c-0.6659546-0.5326691-1.227951-1.2771072-1.6868591-2.2341919
			c-0.4584808-0.9566498-0.6879425-2.2238426-0.6879425-3.8024406c0-1.4599915,0.2389374-2.6633492,0.7181244-3.6100769
			c0.479187-0.9471626,1.0657806-1.6916046,1.7606201-2.2341957c0.6948395-0.5425873,1.4319611-0.922142,2.2117615-1.1395226
			c0.7789612-0.2169495,1.4647369-0.3252106,2.0565033-0.3252106c0.7099304,0,1.3461151,0.0728912,1.9085541,0.2191048
			c0.5624237,0.1457863,1.0454865,0.3303871,1.450058,0.5542374c0.4041443,0.2238503,0.7146912,0.4623642,0.9320679,0.7151146
			c0.2169495,0.2536125,0.3256378,0.4968719,0.3256378,0.7306404c0,0.2367897-0.079361,0.5029106-0.2367859,0.799221
			c-0.1582947,0.2958794-0.3157196,0.5525093-0.473587,0.7690277h-0.3256378
			c-0.335556-0.3942184-0.7690277-0.7642822-1.3016968-1.109333c-0.5326691-0.345047-1.2529602-0.5180054-2.1604309-0.5180054
			c-0.750061,0-1.3905487,0.1285324-1.9232178,0.3847313c-0.5326691,0.2566299-0.9721832,0.6167755-1.316803,1.0800018
			c-0.3454742,0.4636612-0.5969391,1.0062523-0.7547913,1.6273384c-0.1578674,0.621521-0.2367859,1.287468-0.2367859,1.9978371
			c0,0.7297783,0.0789185,1.4155655,0.2367859,2.0564919c0.1578522,0.6413574,0.409317,1.1981812,0.7547913,1.6717682
			c0.3446198,0.4735794,0.7936096,0.8483887,1.3461304,1.1244278
			C249.0571747,67.216507,249.7183685,67.3545303,250.4878387,67.3545303z"/>
		<path class="st0" d="M266.9402161,65.8453674c0,0.4731522,0.0194092,0.8432159,0.059082,1.1097641
			c0.0392456,0.2661209,0.1134338,0.4636612,0.2221375,0.5917587c0.1082458,0.1285324,0.2561951,0.2122116,0.4438171,0.2514572
			c0.1871948,0.0396805,0.4291382,0.0590897,0.7250366,0.0590897v1.1835175
			c-0.1777039,0.0595245-0.3950806,0.1082611-0.6512756,0.1479416c-0.2566528,0.0396805-0.5227661,0.0595245-0.7987976,0.0595245
			c-0.618927,0-1.1580811-0.1237869-1.6178589-0.3700714c-0.4593506-0.2462769-0.7289124-0.6853485-0.8087158-1.3167877
			c-0.4934082,0.4934158-1.0851746,0.9126511-1.7752686,1.2576981c-0.6909485,0.3450546-1.5980225,0.5175781-2.7224426,0.5175781
			c-0.5132446,0-1.03125-0.0590897-1.5535889-0.177269c-0.5231628-0.1186142-0.9963074-0.3351288-1.4202881-0.6512833
			c-0.424408-0.3152847-0.7746582-0.7397003-1.0506897-1.2723694c-0.276474-0.5326691-0.4140625-1.2132797-0.4140625-2.0418243
			c0-1.0252304,0.2609558-1.8641319,0.7841187-2.5149803c0.5223389-0.6512794,1.1688538-1.1641083,1.9378967-1.5389175
			c0.7694702-0.374382,1.5932617-0.631012,2.4709778-0.7694626c0.8777161-0.1375885,1.6817017-0.2169495,2.4118958-0.2367897
			c0.1772766,0,0.3847351,0,0.621521,0c0.2363586,0,0.4438171,0.0103531,0.6210938,0.0297623v-0.443821
			c0-0.8876381-0.2122192-1.5635033-0.6362-2.0271645c-0.424408-0.4632263-1.2382812-0.6952744-2.4412231-0.6952744
			c-0.8876343,0-1.6376648,0.1138687-2.2488403,0.3403053c-0.6116028,0.2268715-1.2037964,0.5378456-1.7757263,0.9320641h-0.2958679
			c-0.1578674-0.2561989-0.2911377-0.5326691-0.3993835-0.8285484c-0.1087036-0.2958794-0.1626282-0.5326691-0.1626282-0.7103691
			c0-0.2557678,0.1574402-0.4977341,0.4736023-0.7246056c0.3152771-0.2268677,0.7245789-0.4291534,1.2279358-0.6068535
			c0.5028992-0.1777,1.0601501-0.3152885,1.6717529-0.4140587c0.6111755-0.0987701,1.2132874-0.1479416,1.8050537-0.1479416
			c1.0062561,0,1.8460083,0.1082611,2.5197144,0.3252106c0.6732788,0.2173805,1.2201843,0.5430183,1.6394043,0.9764862
			c0.4188232,0.4343338,0.7134094,0.97649,0.8829041,1.6277695c0.1699524,0.6508522,0.2549133,1.4009018,0.2549133,2.2488594
			V65.8453674z M264.4545593,62.0575905h-0.8583069c-0.6314392,0-1.2723694,0.0396805-1.9232178,0.1181793
			c-0.6512756,0.079361-1.243042,0.2273026-1.7756958,0.443821c-0.5326843,0.2173805-0.9665833,0.5180054-1.3017273,0.9027367
			c-0.335968,0.3847275-0.5033264,0.8928108-0.5033264,1.5238228c0,0.5917587,0.1777039,1.1149368,0.5326843,1.5686798
			c0.35495,0.4537354,1.0157166,0.6806107,1.9827271,0.6806107c0.5128174,0,1.0010681-0.0741882,1.4647217-0.2221298
			c0.4632263-0.147934,0.8729858-0.3299484,1.2279663-0.5473328c0.3553772-0.2169495,0.6361694-0.4537354,0.8436279-0.7103653
			c0.2070312-0.2562027,0.3105469-0.5029144,0.3105469-0.7397003V62.0575905z"/>
		<path class="st0" d="M272.4441833,66.2891922c0,0.2958755,0.0099182,0.5473328,0.0297546,0.754364
			c0.0194092,0.2074585,0.073761,0.3804169,0.1625977,0.5180054c0.0888672,0.1384506,0.2264404,0.2419586,0.4144897,0.3105392
			c0.1871948,0.0694427,0.4584961,0.1039505,0.813446,0.1039505v1.0649033
			c-0.1772461,0.0595245-0.41922,0.1082611-0.7250061,0.1479416c-0.3058167,0.0396805-0.6064453,0.0595245-0.9023132,0.0595245
			c-0.5723572,0-1.0114441-0.0888519-1.316803-0.2665558c-0.3062134-0.177269-0.5326538-0.4140549-0.680603-0.709938
			c-0.1479492-0.2958755-0.2367859-0.6262665-0.2665405-0.9915848c-0.0293274-0.3648911-0.0444336-0.7250366-0.0444336-1.0800018
			V48.0904312h0.1777039c0.0392456,0,0.0935974-0.0047455,0.1625977-0.0148811
			c0.0690002-0.0097046,0.1332703-0.0146637,0.1923523-0.0146637c0.5520935,0,1.0209351,0.1431961,1.4056702,0.4289398
			c0.3847046,0.2861748,0.5770874,0.8041801,0.5770874,1.5535812V66.2891922z"/>
		<path class="st0" d="M293.8381042,67.5615616c-0.0987854,0.0987701-0.2859802,0.2566299-0.5620117,0.4735794
			c-0.2764587,0.2173767-0.6465454,0.4338989-1.1097717,0.6508484c-0.4636536,0.2173767-1.0161743,0.4093094-1.6571045,0.577095
			c-0.6413574,0.1673431-1.3862305,0.2514496-2.2341919,0.2514496c-1.5195007,0-2.8311157-0.2566299-3.9356995-0.769455
			c-1.1050415-0.5128326-2.009491-1.2227707-2.7133789-2.130249c-0.7039185-0.9074783-1.2219238-1.9926605-1.5531616-3.2551079
			c-0.3321228-1.2624512-0.4977417-2.6335907-0.4977417-4.1134186c0-1.4794006,0.1708069-2.8557129,0.5119629-4.1280823
			c0.3411865-1.2723694,0.8691101-2.3672523,1.5829163-3.2844391c0.7138367-0.9173965,1.6187134-1.6372566,2.7138062-2.1602211
			c1.094696-0.5225334,2.4015503-0.7841263,3.9206238-0.7841263c0.7694702,0,1.5091858,0.0886345,2.2195435,0.2663345
			c0.7103577,0.1774864,1.3362122,0.4045715,1.8792114,0.6806107c0.5421753,0.2764702,0.9765015,0.5820541,1.3016968,0.9171829
			c0.3256531,0.3357773,0.4882507,0.6510658,0.4882507,0.9469452c0,0.2566299-0.0841064,0.528141-0.2514343,0.8138847
			c-0.1677856,0.2861748-0.340332,0.5376282-0.5175781,0.7545815h-0.5326843
			c-0.2173767-0.2367935-0.4688416-0.4832878-0.7547913-0.7399178c-0.2859497-0.2561989-0.6167603-0.4830666-0.9911499-0.6806068
			c-0.3752441-0.1968956-0.7992249-0.3597145-1.2723694-0.4882469c-0.4735718-0.1280975-0.9963379-0.1923637-1.5686951-0.1923637
			c-1.1835022,0-2.1651611,0.2322617-2.9441223,0.695488c-0.7793884,0.4636612-1.4009094,1.0754776-1.8641357,1.8345833
			c-0.4640808,0.7595406-0.7944641,1.6178513-0.9915771,2.574501c-0.197113,0.9570808-0.2958679,1.9383125-0.2958679,2.944561
			c0,1.0256615,0.1035156,2.0219917,0.3109741,2.9885597c0.2070312,0.966568,0.5568237,1.8300514,1.0502319,2.5891609
			c0.492981,0.7595444,1.1438293,1.366394,1.9529724,1.820137c0.8087158,0.4537354,1.8149719,0.6806107,3.0183411,0.6806107
			c0.6512756,0,1.2430115-0.0935974,1.7756958-0.2812195c0.5326538-0.1871872,0.9911499-0.4093094,1.375885-0.6659393
			c0.3847351-0.2562027,0.7052002-0.5029144,0.9618225-0.7397003c0.2561951-0.2367935,0.4334717-0.4144897,0.5326843-0.5326691
			c0.2169495,0.1776962,0.4485474,0.4291534,0.6952515,0.754364c0.2462769,0.3256378,0.3700867,0.6068497,0.3700867,0.8436432
			c0,0.177269-0.0401306,0.3303833-0.1186218,0.4584808C294.0550537,67.2609329,293.9566956,67.4037018,293.8381042,67.5615616z"/>
		<path class="st0" d="M302.3603821,67.3545303c0.5718994,0,1.0700684-0.0590897,1.4944763-0.1777039
			c0.4239807-0.1181793,0.7888794-0.2661209,1.0946655-0.4438171c0.3058167-0.1777039,0.5671997-0.3597183,0.7845764-0.5473328
			c0.2165222-0.1871948,0.3942261-0.3597183,0.5326538-0.5180054c0.2165222,0.2764664,0.408905,0.5723495,0.5766602,0.8876343
			c0.1673584,0.3157196,0.2518921,0.5624313,0.2518921,0.7401352c0,0.1591492-0.0495911,0.3239136-0.1479187,0.4938507
			c-0.0992126,0.1703644-0.266571,0.345047-0.5033569,0.5249023c-0.4541626,0.3403091-1.0355835,0.6258392-1.7459412,0.8552933
			c-0.7099304,0.2298889-1.5682678,0.345047-2.5744934,0.345047c-0.9273376,0-1.800293-0.1332703-2.6184998-0.3993912
			c-0.8190613-0.2665482-1.5372009-0.6952744-2.1544189-1.287468c-0.6176147-0.5917587-1.1058655-1.3655319-1.4647217-2.3226089
			c-0.3592834-0.9566498-0.5386963-2.1255035-0.5386963-3.5065651c0-1.2430382,0.1824341-2.3178673,0.5473328-3.2257767
			c0.3648682-0.9070473,0.8436279-1.6519241,1.4353943-2.2337646c0.5917664-0.5818367,1.2671814-1.010994,2.0271606-1.2874641
			c0.7591248-0.2760391,1.5432434-0.4140587,2.3523865-0.4140587c1.0062561,0,1.868866,0.1677818,2.5891418,0.5029106
			c0.7198792,0.3355598,1.3068848,0.7841225,1.7606201,1.3465538c0.4537354,0.5620003,0.7888794,1.2128487,1.0062561,1.95298
			c0.2169495,0.7396965,0.3256531,1.5044136,0.3256531,2.2932816c0,0.2764702-0.005188,0.5576859-0.0151062,0.8432121
			c-0.0099182,0.2863922-0.0345154,0.5576859-0.073761,0.8138885h-9.3215027
			c0.0595093,1.4315186,0.4390869,2.5831223,1.1395264,3.4556656
			C299.8203735,66.9184723,300.9003906,67.3545303,302.3603821,67.3545303z M304.8757935,60.696373
			c0-0.5326691-0.0539246-1.0256577-0.1621704-1.4794006c-0.1082764-0.4537392-0.289856-0.8531342-0.5451965-1.1986122
			c-0.2553406-0.3450508-0.5943298-0.6163445-1.0161743-0.8138847c-0.4226685-0.1966782-0.9385376-0.2958794-1.5471191-0.2958794
			c-1.0213318,0-1.861084,0.3355598-2.5192871,1.0062485c-0.6581726,0.6706886-1.0260925,1.598011-1.105011,2.7815285H304.8757935z"
			/>
		<path class="st0" d="M309.8764038,55.0737953c0.4537354,0,0.8630676,0.1138649,1.2283936,0.3403053
			c0.3644409,0.2273026,0.5865784,0.6167755,0.6654968,1.1688538c0.4537354-0.4533081,1.0700989-0.8578796,1.8494568-1.2132797
			c0.7793884-0.354969,1.7015381-0.532238,2.7668762-0.532238c1.3413696,0,2.3674622,0.2958794,3.0773926,0.8876381
			c0.7103882,0.5917587,1.1736145,1.331459,1.3909912,2.2190971c0.0983276,0.3950844,0.1574402,0.8337288,0.1777039,1.3167953
			c0.0194092,0.4839325,0.0293274,0.9523354,0.0293274,1.4056435v8.4041061h-2.5154114v-8.3152542
			c0-0.3743782-0.0047302-0.7345238-0.0146484-1.0800056c-0.0099487-0.345047-0.06427-0.6659431-0.1626282-0.9618225
			c-0.1384277-0.5128288-0.424408-0.9070473-0.8583069-1.1835213c-0.4338989-0.2760391-1.0752563-0.4144897-1.9232178-0.4144897
			c-1.1244202,0-2.0223999,0.222126-2.6931152,0.665947c-0.6706848,0.4438171-1.0057983,0.9225731-1.0057983,1.4354019v9.8537445
			h-2.5154114V55.1035576h0.1479492c0.0392456,0,0.0935669-0.0047455,0.1625977-0.0146675
			C309.7530518,55.0789719,309.8173218,55.0737953,309.8764038,55.0737953z"/>
		<path class="st0" d="M323.9617615,67.2954407c-0.1384583-0.3748093-0.2221375-0.7845612-0.2514648-1.2283783
			c-0.0297546-0.4438171-0.0444336-0.8824615-0.0444336-1.3167953V50.9015045h0.1772766
			c0.0396729,0,0.0935974-0.004528,0.1630249-0.0146637c0.0686035-0.0097046,0.1332703-0.0148811,0.1923828-0.0148811
			c0.5326538,0,0.9958801,0.1373711,1.3905334,0.4114685c0.3946533,0.2747459,0.5917664,0.7739906,0.5917664,1.4985924v2.3512955
			h4.4093018v2.1600075h-4.4093018v7.6346474c0,1.6178513,0.6409302,2.4265594,1.923645,2.4265594
			c0.3153076,0,0.6111755-0.0543442,0.8876343-0.1630402c0.276062-0.1078262,0.5227661-0.2363586,0.7397156-0.3847275
			c0.2169495-0.1479416,0.3998108-0.2907028,0.54776-0.4287262c0.1479492-0.1380157,0.2410889-0.2367859,0.2807922-0.2958755
			c0.2367859,0.2958755,0.4390564,0.5818405,0.606842,0.8578796c0.1673584,0.2764664,0.2514648,0.5430222,0.2514648,0.7992172
			c0,0.177269-0.0888672,0.3696365-0.2661133,0.5766678c-0.1777039,0.2074585-0.424408,0.3998184-0.7401428,0.5770874
			c-0.3157349,0.1777039-0.7052002,0.3256454-1.1688538,0.4438248c-0.4636536,0.1186066-0.9717407,0.1776962-1.5238342,0.1776962
			c-1.0260925,0-1.844696-0.1975403-2.4558716-0.5917587C324.6518555,68.5285568,324.2179565,67.9859695,323.9617615,67.2954407z"/>
		<path class="st0" d="M339.0235901,67.3545303c0.5718994,0,1.0700684-0.0590897,1.4944763-0.1777039
			c0.4239807-0.1181793,0.7888794-0.2661209,1.0946655-0.4438171c0.3058167-0.1777039,0.5671997-0.3597183,0.7845764-0.5473328
			c0.2165222-0.1871948,0.3941956-0.3597183,0.5326538-0.5180054c0.2165222,0.2764664,0.4088745,0.5723495,0.5766602,0.8876343
			c0.1673584,0.3157196,0.2518921,0.5624313,0.2518921,0.7401352c0,0.1591492-0.0495911,0.3239136-0.1479492,0.4938507
			c-0.0991821,0.1703644-0.2665405,0.345047-0.5033264,0.5249023c-0.4541626,0.3403091-1.0355835,0.6258392-1.7459412,0.8552933
			c-0.7099609,0.2298889-1.5682678,0.345047-2.5744934,0.345047c-0.9273376,0-1.8003235-0.1332703-2.6184998-0.3993912
			c-0.8190613-0.2665482-1.5372009-0.6952744-2.1544189-1.287468c-0.6176147-0.5917587-1.1058655-1.3655319-1.4647217-2.3226089
			c-0.3592834-0.9566498-0.5386963-2.1255035-0.5386963-3.5065651c0-1.2430382,0.1824341-2.3178673,0.5473328-3.2257767
			c0.3648682-0.9070473,0.8436279-1.6519241,1.4353943-2.2337646c0.5917664-0.5818367,1.2671814-1.010994,2.0271606-1.2874641
			c0.7591248-0.2760391,1.5432434-0.4140587,2.3523865-0.4140587c1.0062256,0,1.868866,0.1677818,2.5891418,0.5029106
			c0.7198792,0.3355598,1.3068848,0.7841225,1.7606201,1.3465538c0.4537354,0.5620003,0.7888794,1.2128487,1.0062561,1.95298
			c0.2169495,0.7396965,0.3256226,1.5044136,0.3256226,2.2932816c0,0.2764702-0.0051575,0.5576859-0.0150757,0.8432121
			c-0.0099182,0.2863922-0.0345154,0.5576859-0.073761,0.8138885h-9.3215027
			c0.0595093,1.4315186,0.4390869,2.5831223,1.1395264,3.4556656
			C336.4835815,66.9184723,337.5635986,67.3545303,339.0235901,67.3545303z M341.5390015,60.696373
			c0-0.5326691-0.0539246-1.0256577-0.1622009-1.4794006c-0.1082458-0.4537392-0.2898254-0.8531342-0.545166-1.1986122
			c-0.2553406-0.3450508-0.5943298-0.6163445-1.0161743-0.8138847c-0.4226685-0.1966782-0.9385376-0.2958794-1.5471191-0.2958794
			c-1.0213318,0-1.861084,0.3355598-2.5192871,1.0062485c-0.6581726,0.6706886-1.0260925,1.598011-1.105011,2.7815285H341.5390015z"
			/>
		<path class="st0" d="M346.5693665,55.0737953c0.4537354,0,0.8626404,0.1138649,1.2279663,0.3403053
			c0.3648682,0.2273026,0.5870056,0.6068535,0.6659241,1.1395264c0.2760315-0.4144936,0.690094-0.8035355,1.2426147-1.1688576
			c0.5520935-0.3648872,1.1934509-0.5473328,1.923645-0.5473328c0.2169495,0,0.4485779,0.0198402,0.695282,0.0590897
			c0.2467041,0.0396805,0.4783325,0.1035156,0.695282,0.1923637c0.2169495,0.0888519,0.3946533,0.2122078,0.5326538,0.3696365
			c0.138031,0.1582909,0.2074585,0.3653183,0.2074585,0.6215172c0,0.3157234-0.0793457,0.6560249-0.2367859,1.020916
			c-0.1582947,0.3653221-0.3157043,0.6659431-0.4735718,0.9027367c-0.2566223-0.2367935-0.5326843-0.4192352-0.8285522-0.5477676
			c-0.2958679-0.1280975-0.6706848-0.1923637-1.1244202-0.1923637c-0.3355713,0-0.6560364,0.0547752-0.9618225,0.1630363
			c-0.3058167,0.1086884-0.5771179,0.2566299-0.8139038,0.4438171c-0.2363586,0.1876221-0.424408,0.399395-0.5619812,0.6361847
			c-0.1384583,0.2367897-0.2070312,0.4835014-0.2070312,0.7397003v9.8244133h-2.5154114V55.1035576h0.2070312
			c0.059082,0,0.1185913-0.0047455,0.1777039-0.0146675C346.4805298,55.0789719,346.5296936,55.0737953,346.5693665,55.0737953z"/>
	</g>
	<g>
		<path class="st1" d="M9.9560223,32.2593079c0,0.841198-0.1429424,1.5394554-0.4280949,2.0947723
			c-0.2853346,0.5558662-0.6907625,0.9989471-1.2162838,1.3290672c-0.525887,0.3304825-1.1638241,0.5631752-1.9145427,0.6982574
			c-0.7510839,0.1350822-1.5846062,0.202713-2.5003841,0.202713H0V21.5600624
			c0.6154539-0.0597725,1.201113-0.1087608,1.7569773-0.1464157c0.555316-0.0372887,1.1938014-0.0562992,1.9145422-0.0562992
			c1.0360539,0,1.9107039,0.0826206,2.6241329,0.2476807c0.7130637,0.1654243,1.2873902,0.4054279,1.7231617,0.7209244
			c0.4354057,0.3153114,0.7507181,0.7094078,0.9461203,1.1824684c0.1948547,0.4730606,0.2928295,1.0100975,0.2928295,1.6105614
			c0,0.5258865-0.0754919,0.9876156-0.2253799,1.3851833c-0.1502533,0.3981171-0.3343229,0.739933-0.5518427,1.0249023
			c-0.217886,0.2855186-0.4544163,0.5182095-0.7095909,0.6982594c-0.2553573,0.1802292-0.488049,0.3154945-0.6982574,0.4054279
			c0.2401857,0.0603199,0.5293598,0.1615849,0.8673382,0.3041611c0.3377962,0.1429424,0.6531086,0.3491306,0.9459381,0.6194763
			s0.5441656,0.6233139,0.7545576,1.0587196C9.8507347,31.0507011,9.9560223,31.5987053,9.9560223,32.2593079z M7.2980728,25.186615
			c0-0.4653835-0.0939541-0.8446732-0.2816792-1.1375027c-0.1879082-0.2928295-0.4469218-0.5182095-0.7770405-0.6757736
			c-0.3304844-0.1577473-0.7247624-0.2665081-1.182651-0.3266468c-0.4580717-0.0597706-0.9572711-0.0901146-1.4977813-0.0901146
			c-0.3604617,0-0.6757746,0.0076771-0.9461207,0.0224838c-0.2701638,0.0151711-0.4880493,0.0376549-0.6531087,0.0676308v4.9554367
			H4.099431c0.9309492,0,1.6968393-0.2438412,2.2976699-0.7320728C6.9973831,26.7823715,7.2980728,26.0875874,7.2980728,25.186615z
			 M3.37869,34.9397392c0.6757748,0,1.2912285-0.0297928,1.8470929-0.0897484
			c0.555316-0.0597725,1.0360537-0.182972,1.4414816-0.3697853c0.4054284-0.1869926,0.7209239-0.4597168,0.9461212-0.8187141
			c0.2251973-0.3590012,0.3377957-0.8371811,0.3377957-1.4356346c0-0.5233269-0.1051044-0.9534321-0.3153129-1.2897663
			c-0.210391-0.3365154-0.4955435-0.6054001-0.8560052-0.8073826c-0.3602791-0.2021656-0.7697287-0.3403549-1.2274346-0.4149342
			c-0.4582548-0.0747604-0.9347882-0.1124153-1.4303317-0.1124153H1.9596914v5.3383808H3.37869z"/>
		<path class="st1" d="M16.7581863,35.2777176c0.4354057,0,0.8143291-0.0451469,1.1375008-0.1352615
			c0.3228073-0.0901184,0.6004658-0.2027168,0.8333397-0.3377991c0.2326927-0.1350822,0.4315681-0.273819,0.5969925-0.4167595
			c0.16506-0.1425781,0.3001404-0.273819,0.4054279-0.3940964c0.16506,0.210392,0.3114738,0.4355888,0.4392452,0.6757736
			c0.1274033,0.2403717,0.1913795,0.4279137,0.1913795,0.5629959c0,0.1215553-0.037653,0.2467651-0.1125984,0.3763618
			c-0.0753098,0.1294174-0.202713,0.2624893-0.3829441,0.3993988c-0.3454742,0.2590141-0.7883739,0.4761658-1.3288841,0.6510963
			s-1.1938,0.2624855-1.9596901,0.2624855c-0.7059355,0-1.3703775-0.101265-1.9935083-0.303978
			s-1.1698561-0.5293617-1.6396255-0.9799385c-0.4703188-0.4503937-0.8419313-1.0395241-1.1150188-1.7681274
			c-0.2734547-0.7282333-0.4099979-1.6178741-0.4099979-2.669281c0-0.9459381,0.1387367-1.7642879,0.4167604-2.4550514
			c0.2776585-0.6905804,0.6419582-1.2575951,1.0923529-1.7006779c0.4505777-0.4427185,0.9647655-0.7693634,1.5429306-0.9797554
			c0.5779819-0.2102089,1.1747913-0.3154945,1.7907934-0.3154945c0.7658901,0,1.4226551,0.1277695,1.9708424,0.3829441
			c0.5480042,0.2555408,0.9947414,0.5969925,1.3402157,1.0249043c0.3452892,0.4279099,0.6004639,0.9234543,0.7658901,1.4866295
			c0.1650581,0.5631771,0.2478638,1.1451797,0.2478638,1.7456455c0,0.2105732-0.0038395,0.4244385-0.0113335,0.6419582
			c-0.0076771,0.217886-0.0263214,0.4244385-0.0562992,0.6194744h-7.0953588
			c0.0451488,1.0896111,0.3339567,1.9662743,0.8673382,2.6305313
			C14.8246336,34.9457741,15.6466398,35.2777176,16.7581863,35.2777176z M18.6727276,30.2095013
			c0-0.4054279-0.0411282-0.7805138-0.1233826-1.1261692c-0.0824394-0.3452911-0.2208099-0.649271-0.4151173-0.9123058
			c-0.1941223-0.2624855-0.4522209-0.469038-0.7735672-0.6192913c-0.3217087-0.1500702-0.7139778-0.2253799-1.1775322-0.2253799
			c-0.7774057,0-1.4166222,0.2555408-1.9174671,0.7658901c-0.5012102,0.5107155-0.7812443,1.2162838-0.8411989,2.1172562H18.6727276
			z"/>
		<path class="st1" d="M22.7270088,35.2325706c-0.1052856-0.2849693-0.1690807-0.5968094-0.1915627-0.9347878
			c-0.0224838-0.3377953-0.0338173-0.6717529-0.0338173-1.0022392V22.7538624h0.1352654
			c0.0297947,0,0.071106-0.0034714,0.1239319-0.0113316c0.0522785-0.0073128,0.101265-0.0111504,0.1464138-0.0111504
			c0.4054279,0,0.7580299,0.1045551,1.0585365,0.313118c0.3003254,0.2091122,0.4505787,0.5893154,0.4505787,1.1407928v1.7896976
			h3.3562069v1.6441956h-3.3562069v5.8114414c0,1.2314568,0.4876823,1.8470917,1.4641476,1.8470917
			c0.2400036,0,0.4652004-0.0413094,0.6755924-0.1239319c0.210207-0.0824356,0.3977509-0.1802292,0.5631752-0.2928276
			c0.16506-0.1125984,0.304163-0.2213593,0.4167614-0.3266449c0.1125984-0.1049232,0.1837044-0.180233,0.2140465-0.2251968
			c0.180048,0.2251968,0.3339577,0.4430809,0.4617271,0.6532898c0.1274052,0.210392,0.1913815,0.413105,0.1913815,0.6081429
			c0,0.1350822-0.0676327,0.2814941-0.202713,0.4392433c-0.1350822,0.1575661-0.3229904,0.3039818-0.5631771,0.4392433
			c-0.2403679,0.1350822-0.5370369,0.2476807-0.8896389,0.3377991c-0.3529663,0.0901146-0.7397499,0.1350784-1.1599846,0.1350784
			c-0.7810612,0-1.4043751-0.1502533-1.8695755-0.4503937C23.2523479,36.171196,22.9218636,35.7584572,22.7270088,35.2325706z"/>
		<path class="st1" d="M36.8948784,30.2546501c0-0.2851524-0.0038376-0.5593376-0.0113335-0.8221893
			c-0.0076752-0.2624855-0.0488052-0.506876-0.1239319-0.7320747c-0.1051025-0.390255-0.3229904-0.6905804-0.6531067-0.9009705
			c-0.3304863-0.2100258-0.818718-0.3153133-1.4641495-0.3153133c-0.4206009,0-0.8073845,0.0489883-1.1599846,0.1464157
			c-0.3529663,0.0977917-0.6532898,0.2217236-0.9009705,0.3716106c-0.2478638,0.1502533-0.4392471,0.3231735-0.5745087,0.5180283
			c-0.1350842,0.1954021-0.2027149,0.3908043-0.2027149,0.585659v7.478302h-1.9145432V20.6139412h0.1125984
			c0.0299778,0,0.071106-0.0034733,0.1239319-0.0111504c0.0524616-0.007494,0.101265-0.0113335,0.1464138-0.0113335
			c0.4202347,0,0.7770405,0.1052876,1.06987,0.3153133c0.2928295,0.2105732,0.4392452,0.6008301,0.4392452,1.1713181v5.0005856
			c0.3902569-0.4354057,0.8858013-0.7658901,1.4866314-0.991087c0.6004639-0.2253799,1.2389488-0.3379784,1.9145432-0.3379784
			c0.5255203,0,0.9872475,0.0641594,1.3853645,0.1915627c0.3977509,0.1277714,0.7355461,0.3005066,1.0135689,0.5180283
			c0.2776604,0.2178841,0.5068779,0.4695873,0.6871071,0.7545567c0.180233,0.2855167,0.3076363,0.585659,0.382946,0.9009705
			c0.0749435,0.3006897,0.1199112,0.6346474,0.1350822,1.0024204c0.0148048,0.3681393,0.0224838,0.7245808,0.0224838,1.06987
			v6.3971004h-1.9145432V30.2546501z"/>
		<path class="st1" d="M47.3462601,36.5841179h-2.0048409V21.4924297c0.060688,0,0.1215553-0.0073109,0.1824265-0.0224838
			c0.0605011,0,0.1213722-0.0034733,0.1822395-0.0113316c0.0605049-0.0073128,0.1288681-0.0111504,0.2049103-0.0111504
			c0.1365433,0,0.2846031,0.0190086,0.4441795,0.0562992c0.1593933,0.0376549,0.3149452,0.1052856,0.4670258,0.202713
			c0.1519012,0.0977936,0.2772942,0.2403698,0.3758163,0.4279118c0.098526,0.1879082,0.148243,0.4319324,0.148243,0.7320747
			V36.5841179z"/>
		<path class="st1" d="M55.812912,26.3577499c0.3012352,0.1654263,0.5043144,0.319334,0.6099701,0.4619102
			c0.1054688,0.1427593,0.1582947,0.281498,0.1582947,0.4165783c0,0.1654263-0.0414925,0.3569889-0.1244812,0.5745106
			c-0.083168,0.2178841-0.1847992,0.4317493-0.3052597,0.6419582l-0.3167725,0.0224819
			c-0.2560883-0.3153114-0.629528-0.5891323-1.1194077-0.8221893c-0.4904251-0.2326908-1.0144844-0.3491287-1.5718117-0.3491287
			c-0.1964989,0-0.4110947,0.0190105-0.6448822,0.0562992c-0.2336044,0.0376549-0.4525871,0.1052876-0.6560326,0.2027149
			c-0.2034454,0.0977917-0.3730736,0.2365303-0.5088882,0.4167614c-0.1358109,0.1802311-0.2034454,0.4054279-0.2034454,0.6757736
			c0,0.4807377,0.2147789,0.8260288,0.6445198,1.0360546c0.4293709,0.2105732,0.960743,0.3906212,1.5942917,0.5406914
			c0.4522247,0.1051044,0.8892746,0.2365303,1.3117027,0.3940964c0.4218788,0.1577473,0.7949524,0.3604622,1.1192207,0.6081409
			c0.3240891,0.2478638,0.5803604,0.5597038,0.769001,0.9347897c0.1882706,0.3756332,0.2825928,0.841198,0.2825928,1.3965149
			c0,0.5558624-0.1129646,1.0400734-0.3388939,1.4529991c-0.2259293,0.413105-0.5273476,0.7583923-0.9038963,1.0360527
			c-0.3765488,0.2780228-0.8168869,0.4882317-1.3215714,0.630806c-0.5046844,0.142395-1.0280113,0.2138672-1.5699844,0.2138672
			c-0.5271645,0-1.0016899-0.0414963-1.4233856-0.1239319c-0.4215126-0.0826225-0.7755775-0.1840706-1.0614586-0.3039818
			c-0.3765488-0.1498871-0.6401329-0.3041611-0.7907524-0.4617271c-0.1506195-0.1577492-0.2259293-0.3189697-0.2259293-0.4843941
			c0-0.1948547,0.0524635-0.3975677,0.1575661-0.6081429c0.1049232-0.2100258,0.2400055-0.4503937,0.4054298-0.7207375
			c0.1049194,0.0901146,0.2513351,0.202713,0.4392433,0.3377953c0.1877251,0.1352615,0.4129219,0.2630348,0.6757736,0.3829422
			c0.2626686,0.1204605,0.5518456,0.2217255,0.867157,0.3041649c0.3154945,0.0826187,0.6532898,0.1237488,1.013752,0.1237488
			c0.2701645,0,0.5328331-0.0263214,0.7883759-0.0791473c0.2551727-0.0528259,0.4842072-0.1396523,0.686924-0.2608414
			c0.202713-0.1210098,0.3677711-0.2871628,0.4955444-0.4986534c0.1274033-0.2114868,0.1915627-0.4761658,0.1915627-0.7936745
			c0-0.3173218-0.0676346-0.5777969-0.202713-0.7819748c-0.1352654-0.204174-0.3154984-0.3741722-0.5406952-0.5103493
			c-0.2251968-0.1358109-0.4768982-0.2456703-0.7545547-0.3286552c-0.2780266-0.0831718-0.5597038-0.1548233-0.8446732-0.2155094
			c-0.4357719-0.0897503-0.8525314-0.2054577-1.250103-0.3476677c-0.3981133-0.14221-0.7510834-0.3328609-1.0587196-0.5723152
			c-0.3079987-0.2392712-0.5556793-0.5388641-0.7434044-0.8978634c-0.1879082-0.3588181-0.281498-0.7925777-0.281498-1.301466
			c0-0.4937153,0.1052895-0.9314976,0.3164101-1.3131638c0.2107582-0.3814812,0.4970055-0.6953316,0.8583832-0.9424648
			c0.361557-0.2467651,0.7719193-0.4335766,1.2314529-0.5609818c0.4593544-0.127039,0.9377136-0.1908321,1.4349022-0.1908321
			c0.5723152,0,1.0956459,0.0603199,1.5701675,0.1802311C55.1462746,26.0502987,55.526844,26.1926918,55.812912,26.3577499z"/>
		<path class="st1" d="M59.1937943,25.9298401c0.3452911,0,0.656765,0.0866413,0.9347878,0.2590122
			c0.2776566,0.1729202,0.4465561,0.4617271,0.5068779,0.8673382c0.2100258-0.3154945,0.5253372-0.6117973,0.9459381-0.8898201
			c0.4202347-0.2776585,0.9084663-0.4167614,1.4641457-0.4167614c0.165062,0,0.3414536,0.0151711,0.5293617,0.0451488
			c0.187542,0.030159,0.3639336,0.0787811,0.5293579,0.1464138c0.165062,0.0674496,0.3001404,0.1615868,0.405426,0.281498
			c0.1049271,0.1204586,0.1575699,0.2780228,0.1575699,0.4730587c0,0.2403698-0.0601425,0.4993839-0.1800537,0.7770405
			c-0.1204529,0.2780247-0.2405472,0.5068779-0.3604584,0.687109c-0.1954041-0.1802311-0.4054298-0.3189697-0.6306267-0.4167614
			c-0.2253799-0.0974274-0.5107155-0.1464157-0.8560028-0.1464157c-0.2555428,0-0.499382,0.0414944-0.7320747,0.1239319
			c-0.2330589,0.0826206-0.4392433,0.195219-0.6194763,0.3377953c-0.1802292,0.1429424-0.3229904,0.304163-0.4279099,0.4843941
			c-0.1052895,0.180048-0.1577492,0.3681393-0.1577492,0.562994v7.478302h-1.9145432V25.952322h0.1575661
			c0.0451508,0,0.0901146-0.0034733,0.1352654-0.0111504C59.1261635,25.9336777,59.1634521,25.9298401,59.1937943,25.9298401z"/>
		<path class="st1" d="M73.8796921,34.1288834c0,0.3604622,0.014801,0.6419601,0.0451431,0.8446732
			c0.0298004,0.202713,0.0860977,0.3529663,0.1688995,0.4505768c0.0822601,0.0977936,0.1950378,0.1615868,0.3377991,0.1913834
			c0.1425781,0.0303421,0.3266449,0.0451469,0.5518417,0.0451469v0.9009705
			c-0.1350784,0.0449677-0.3005066,0.0822563-0.4955444,0.1125984c-0.1952209,0.0299797-0.397934,0.0449677-0.608139,0.0449677
			c-0.4712372,0-0.8815994-0.0939522-1.2314606-0.2814941c-0.3498611-0.1875458-0.5549469-0.5215034-0.6156311-1.0024223
			c-0.3754578,0.3756332-0.8260345,0.6947861-1.3513718,0.9574547c-0.5258865,0.2624855-1.2164688,0.3940964-2.0722885,0.3940964
			c-0.390625,0-0.7848969-0.0449677-1.1826477-0.1350822c-0.397934-0.0901184-0.7584-0.2551765-1.0812073-0.4955444
			c-0.3229904-0.2400055-0.5894928-0.5631752-0.7995224-0.968605c-0.2105713-0.405426-0.3153152-0.9234543-0.3153152-1.5542641
			c0-0.7805138,0.1986923-1.4189987,0.5968094-1.9145412c0.3977509-0.4955425,0.8898239-0.8859825,1.4754868-1.1713181
			c0.5854721-0.2851524,1.2124405-0.4803715,1.880722-0.585659c0.6680984-0.1049213,1.2800827-0.16506,1.835762-0.1802311
			c0.1352615,0,0.2928314,0,0.4730606,0s0.3377914,0.0076771,0.4730606,0.0224838v-0.3377972
			c0-0.6757736-0.1615906-1.1899624-0.4843979-1.5429287c-0.3229904-0.352602-0.9424591-0.5293598-1.8582382-0.5293598
			c-0.6757736,0-1.2466278,0.0866413-1.7118301,0.2590122c-0.4657516,0.1727371-0.9161453,0.4092674-1.3515472,0.7095909h-0.2251968
			c-0.1204605-0.1950359-0.2217255-0.4054279-0.3041687-0.6308079c-0.0826187-0.2251968-0.1239243-0.4054279-0.1239243-0.5405102
			c0-0.1950359,0.1200867-0.3791065,0.3604584-0.5518436c0.2400055-0.1725521,0.5518417-0.3266449,0.9347916-0.4617271
			c0.3829422-0.1352634,0.8070145-0.2401848,1.272583-0.3154945c0.4653778-0.0749435,0.9236374-0.1125984,1.3740311-0.1125984
			c0.765892,0,1.4051056,0.0828037,1.9178314,0.2478619c0.5127258,0.1654263,0.9287567,0.4131069,1.2480927,0.7432251
			c0.318779,0.3304844,0.5430679,0.7434063,0.6721191,1.2389507c0.1292267,0.4955425,0.1939392,1.0663967,0.1939392,1.7118282
			V34.1288834z M71.9876328,31.2457371h-0.6532974c-0.4807358,0-0.9684143,0.030344-1.4639587,0.0901165
			c-0.4955444,0.0601368-0.9461212,0.1727352-1.3515549,0.3377953c-0.405426,0.1654243-0.7359085,0.3942795-0.9910812,0.6871071
			c-0.2555466,0.2928314-0.3829498,0.679615-0.3829498,1.1599846c0,0.4505768,0.1350861,0.8485107,0.4054337,1.1938019
			c0.27034,0.3456573,0.773201,0.5180283,1.5091095,0.5180283c0.3904419,0,0.7620544-0.0563011,1.1150208-0.1688995
			c0.3526001-0.1125984,0.664444-0.2513351,0.9347839-0.4167595c0.2703476-0.165062,0.4843979-0.345108,0.6419601-0.5405121
			c0.157753-0.195034,0.2365341-0.3829422,0.2365341-0.5631752V31.2457371z"/>
		<path class="st1" d="M81.3804779,35.2777176c0.4354019,0,0.8143311-0.0451469,1.1374969-0.1352615
			c0.3228073-0.0901184,0.6004715-0.2027168,0.8333435-0.3377991c0.2326889-0.1350822,0.4315643-0.273819,0.5969925-0.4167595
			c0.165062-0.1425781,0.3001404-0.273819,0.405426-0.3940964c0.165062,0.210392,0.3114777,0.4355888,0.4392471,0.6757736
			c0.1274033,0.2403717,0.1913834,0.4279137,0.1913834,0.5629959c0,0.1215553-0.0376587,0.2467651-0.1126022,0.3763618
			c-0.0753098,0.1294174-0.202713,0.2624893-0.3829422,0.3993988c-0.3454742,0.2590141-0.7883759,0.4761658-1.3288879,0.6510963
			c-0.5405045,0.1749306-1.1938019,0.2624855-1.9596863,0.2624855c-0.7059402,0-1.3703766-0.101265-1.9935074-0.303978
			s-1.1698608-0.5293617-1.6396332-0.9799385c-0.470314-0.4503937-0.8419266-1.0395241-1.1150131-1.7681274
			c-0.2734528-0.7282333-0.4100037-1.6178741-0.4100037-2.669281c0-0.9459381,0.1387405-1.7642879,0.4167633-2.4550514
			c0.2776566-0.6905804,0.6419601-1.2575951,1.0923538-1.7006779c0.4505768-0.4427185,0.9647675-0.7693634,1.5429306-0.9797554
			c0.57798-0.2102089,1.1747894-0.3154945,1.7907944-0.3154945c0.765892,0,1.4226532,0.1277695,1.9708405,0.3829441
			c0.5480042,0.2555408,0.9947433,0.5969925,1.3402176,1.0249043c0.3452911,0.4279099,0.6004639,0.9234543,0.765892,1.4866295
			c0.1650543,0.5631771,0.2478638,1.1451797,0.2478638,1.7456455c0,0.2105732-0.0038452,0.4244385-0.0113373,0.6419582
			c-0.0076752,0.217886-0.0263214,0.4244385-0.0562973,0.6194744h-7.0953598
			c0.0451508,1.0896111,0.3339539,1.9662743,0.8673401,2.6305313
			C79.4469223,34.9457741,80.2689285,35.2777176,81.3804779,35.2777176z M83.2950211,30.2095013
			c0-0.4054279-0.0411301-0.7805138-0.1233826-1.1261692c-0.0824432-0.3452911-0.2208099-0.649271-0.4151154-0.9123058
			c-0.1941299-0.2624855-0.4522247-0.469038-0.7735672-0.6192913c-0.3217163-0.1500702-0.7139816-0.2253799-1.177536-0.2253799
			c-0.7774048,0-1.416626,0.2555408-1.9174652,0.7658901c-0.5012131,0.5107155-0.78125,1.2162838-0.8412018,2.1172562H83.2950211z"
			/>
		<path class="st1" d="M89.0613098,34.4668617c0,0.2251968,0.0073166,0.4165802,0.0224838,0.5743256
			c0.0148087,0.1575661,0.0562973,0.2893562,0.1239319,0.3940964c0.0676346,0.1052856,0.1723709,0.1840706,0.3153152,0.2365303
			c0.1425781,0.0528259,0.3491287,0.0789642,0.6194763,0.0789642v0.8108559
			c-0.1350861,0.0449677-0.3191528,0.0822563-0.5518494,0.1125984c-0.2330551,0.0299797-0.4617233,0.0449677-0.6871033,0.0449677
			c-0.4355927,0-0.7695465-0.0674477-1.0022354-0.202713c-0.2330627-0.1350822-0.4054337-0.3153114-0.5180283-0.5405121
			c-0.1127853-0.2251968-0.1802292-0.476532-0.2028961-0.7545547c-0.0224838-0.2776604-0.033638-0.5518456-0.033638-0.8221893
			V20.6139412h0.1350861c0.0299759,0,0.071106-0.0034733,0.1239319-0.0111504
			c0.0524597-0.007494,0.101265-0.0113335,0.1464157-0.0113335c0.4202347,0,0.7770386,0.1091251,1.06987,0.3266468
			c0.2928238,0.2178841,0.4392395,0.6119804,0.4392395,1.1824684V34.4668617z"/>
		<path class="st1" d="M95.8411713,21.4924297c0.0597763,0,0.1199112-0.0073109,0.1802368-0.0224838
			c0.0597687,0,0.1199112-0.0034733,0.1800461-0.0113316c0.0599518-0.0073128,0.1274033-0.0111504,0.202713-0.0111504
			c0.1352615,0,0.2816772,0.0190086,0.4392471,0.0562992c0.1577454,0.0376549,0.3076324,0.1052856,0.4505768,0.202713
			c0.1425781,0.0977936,0.2624817,0.2403698,0.3604584,0.4279118c0.0974274,0.1879082,0.1464157,0.4319324,0.1464157,0.7320747
			v12.0058289h5.2257843c0.4803696,0,0.8256607,0.116436,1.0360565,0.3491287
			c0.2102051,0.232872,0.3153076,0.5145531,0.3153076,0.8446732c0,0.0753098-0.0038376,0.1427574-0.0111465,0.202713
			c-0.0078583,0.0601387-0.0113373,0.1125984-0.0113373,0.1575661v0.1577454h-8.5143585V21.4924297z"/>
		<path class="st1" d="M113.7931595,34.1288834c0,0.3604622,0.0149918,0.6419601,0.0453339,0.8446732
			c0.0296097,0.202713,0.0859146,0.3529663,0.1688995,0.4505768c0.0822525,0.0977936,0.1948547,0.1615868,0.3377914,0.1913834
			c0.1425781,0.0303421,0.3264694,0.0451469,0.5516663,0.0451469v0.9009705
			c-0.134903,0.0449677-0.3005066,0.0822563-0.4953613,0.1125984c-0.1952209,0.0299797-0.3981171,0.0449677-0.6083298,0.0449677
			c-0.4712296,0-0.8814087-0.0939522-1.2312698-0.2814941c-0.3498611-0.1875458-0.5549545-0.5215034-0.6158218-1.0024223
			c-0.3754501,0.3756332-0.8260269,0.6947861-1.3513641,0.9574547c-0.5258865,0.2624855-1.2164688,0.3940964-2.0722885,0.3940964
			c-0.390625,0-0.7849045-0.0449677-1.1826553-0.1350822c-0.397934-0.0901184-0.7583923-0.2551765-1.0811996-0.4955444
			c-0.3229904-0.2400055-0.5895004-0.5631752-0.7995224-0.968605c-0.2105789-0.405426-0.3153152-0.9234543-0.3153152-1.5542641
			c0-0.7805138,0.1986923-1.4189987,0.5968094-1.9145412c0.3977509-0.4955425,0.8898239-0.8859825,1.4754791-1.1713181
			c0.5854797-0.2851524,1.2124481-0.4803715,1.8807297-0.585659c0.6680984-0.1049213,1.2800751-0.16506,1.8357544-0.1802311
			c0.1352692,0,0.2928314,0,0.4730606,0c0.1802368,0,0.3377991,0.0076771,0.4730606,0.0224838v-0.3377972
			c0-0.6757736-0.1615829-1.1899624-0.4843903-1.5429287c-0.3229904-0.352602-0.9424667-0.5293598-1.8582458-0.5293598
			c-0.6757736,0-1.2466278,0.0866413-1.7118225,0.2590122c-0.4657516,0.1727371-0.9161453,0.4092674-1.3515549,0.7095909h-0.2251968
			c-0.1204529-0.1950359-0.2217255-0.4054279-0.3041611-0.6308079c-0.0826187-0.2251968-0.1239319-0.4054279-0.1239319-0.5405102
			c0-0.1950359,0.1200943-0.3791065,0.360466-0.5518436c0.2399979-0.1725521,0.5518417-0.3266449,0.9347839-0.4617271
			c0.3829498-0.1352634,0.8070221-0.2401848,1.272583-0.3154945c0.4653854-0.0749435,0.9236374-0.1125984,1.3740311-0.1125984
			c0.765892,0,1.4051132,0.0828037,1.9178391,0.2478619c0.5129089,0.1654263,0.9289322,0.4131069,1.248085,0.7432251
			c0.3187866,0.3304844,0.543251,0.7434063,0.6723022,1.2389507c0.1290512,0.4955425,0.1937561,1.0663967,0.1937561,1.7118282
			V34.1288834z M111.9011002,31.2457371h-0.6532898c-0.4807358,0-0.9684219,0.030344-1.4639664,0.0901165
			c-0.4955444,0.0601368-0.9461212,0.1727352-1.3515472,0.3377953c-0.405426,0.1654243-0.7359085,0.3942795-0.9910889,0.6871071
			c-0.2555389,0.2928314-0.3829422,0.679615-0.3829422,1.1599846c0,0.4505768,0.1350784,0.8485107,0.405426,1.1938019
			c0.2703476,0.3456573,0.773201,0.5180283,1.5091171,0.5180283c0.3904343,0,0.7620468-0.0563011,1.1150208-0.1688995
			c0.3526001-0.1125984,0.6644363-0.2513351,0.9347839-0.4167595c0.2703476-0.165062,0.4843903-0.345108,0.6419601-0.5405121
			c0.1577454-0.195034,0.2365265-0.3829422,0.2365265-0.5631752V31.2457371z"/>
		<path class="st1" d="M123.4403534,30.2546501c0-0.2851524-0.0036545-0.5593376-0.0113297-0.8221893
			c-0.0076828-0.2624855-0.0486221-0.506876-0.1239319-0.7320747c-0.1049271-0.390255-0.3228073-0.6905804-0.6529312-0.9009705
			c-0.3304825-0.2100258-0.8188934-0.3153133-1.4641418-0.3153133c-0.420784,0-0.8075714,0.0489883-1.1599884,0.1464157
			c-0.3531494,0.0977917-0.6532898,0.2217236-0.9011536,0.3716106c-0.2478638,0.1502533-0.439064,0.3231735-0.5743256,0.5180283
			c-0.1352692,0.1954021-0.2028961,0.3908043-0.2028961,0.585659v7.478302h-1.9145432V20.6139412h0.1125946
			c0.0299835,0,0.0712891-0.0034733,0.1239319-0.0111504c0.0526428-0.007494,0.101265-0.0113335,0.1465988-0.0113335
			c0.4200516,0,0.7768555,0.1052876,1.0696869,0.3153133c0.2928314,0.2105732,0.4394302,0.6008301,0.4394302,1.1713181v5.0005856
			c0.3900681-0.4354057,0.8857956-0.7658901,1.4864426-0.991087c0.6006546-0.2253799,1.2389526-0.3379784,1.9145432-0.3379784
			c0.5257034,0,0.9874344,0.0641594,1.3855515,0.1915627c0.3977509,0.1277714,0.7355423,0.3005066,1.0133896,0.5180283
			c0.2778397,0.2178841,0.5070572,0.4695873,0.6872864,0.7545567c0.1802292,0.2855167,0.307457,0.585659,0.3827667,0.9009705
			c0.0749435,0.3006897,0.1199036,0.6346474,0.1352615,1.0024204c0.0146255,0.3681393,0.0223007,0.7245808,0.0223007,1.06987
			v6.3971004h-1.9145432V30.2546501z"/>
		<path class="st1" d="M132.6594543,35.2777176c0.4354095,0,0.8141479-0.0451469,1.1373138-0.1352615
			c0.3228149-0.0901184,0.600647-0.2027168,0.8335266-0.3377991c0.2325134-0.1350822,0.4313812-0.273819,0.5969849-0.4167595
			c0.1648865-0.1425781,0.3001404-0.273819,0.405426-0.3940964c0.1648865,0.210392,0.3114777,0.4355888,0.4390717,0.6757736
			c0.1275787,0.2403717,0.1915588,0.4279137,0.1915588,0.5629959c0,0.1215553-0.0376587,0.2467651-0.1125946,0.3763618
			c-0.0753174,0.1294174-0.2028961,0.2624893-0.3831329,0.3993988c-0.3454742,0.2590141-0.7881927,0.4761658-1.3288727,0.6510963
			c-0.540329,0.1749306-1.1936188,0.2624855-1.9595184,0.2624855c-0.7059326,0-1.3705597-0.101265-1.9934998-0.303978
			c-0.6233215-0.202713-1.1698608-0.5293617-1.6396332-0.9799385c-0.4705048-0.4503937-0.8419342-1.0395241-1.1150208-1.7681274
			c-0.2734528-0.7282333-0.4101791-1.6178741-0.4101791-2.669281c0-0.9459381,0.1389236-1.7642879,0.4167633-2.4550514
			c0.2778397-0.6905804,0.6419601-1.2575951,1.0923538-1.7006779c0.4507599-0.4427185,0.9647675-0.7693634,1.5431061-0.9797554
			c0.5779877-0.2102089,1.1746216-0.3154945,1.7906189-0.3154945c0.7658844,0,1.4228363,0.1277695,1.9708405,0.3829441
			c0.5480042,0.2555408,0.9947357,0.5969925,1.34021,1.0249043c0.3454742,0.4279099,0.600647,0.9234543,0.7658997,1.4866295
			c0.1652374,0.5631771,0.2478638,1.1451797,0.2478638,1.7456455c0,0.2105732-0.0036621,0.4244385-0.0113373,0.6419582
			c-0.0076752,0.217886-0.0263214,0.4244385-0.0563049,0.6194744h-7.0951691
			c0.0449677,1.0896111,0.3337708,1.9662743,0.867157,2.6305313
			C130.7258911,34.9457741,131.5477295,35.2777176,132.6594543,35.2777176z M134.5739899,30.2095013
			c0-0.4054279-0.0413055-0.7805138-0.1235657-1.1261692c-0.0822449-0.3452911-0.2208099-0.649271-0.4149323-0.9123058
			c-0.1941223-0.2624855-0.4522247-0.469038-0.7735596-0.6192913c-0.3217163-0.1500702-0.7139893-0.2253799-1.177536-0.2253799
			c-0.7775879,0-1.416626,0.2555408-1.9174652,0.7658901c-0.5012207,0.5107155-0.78125,1.2162838-0.8412018,2.1172562H134.5739899z"
			/>
		<path class="st1" d="M142.953186,38.0482674c-0.1652374,0.4803696-0.3458405,0.9382591-0.5410614,1.3740311
			c-0.1959534,0.4352226-0.436142,0.8143311-0.7220154,1.1375008c-0.2858887,0.322628-0.635376,0.5816383-1.0484924,0.7770424
			c-0.4134674,0.1950378-0.913208,0.2928276-1.4992371,0.2928276c-0.5717621,0-1.0488434-0.081707-1.4319763-0.2442055
			c-0.3838654-0.163414-0.575058-0.4149323-0.575058-0.7556534c0-0.2076492,0.0563049-0.4229774,0.1688995-0.6465302
			c0.1125946-0.2242813,0.2292175-0.4184036,0.3498535-0.5834656c0.120285,0.1047401,0.3041687,0.228672,0.5523987,0.3716125
			c0.24823,0.1425781,0.5604248,0.2138634,0.936615,0.2138634c0.526062,0,0.9508667-0.196682,1.2744141-0.5894966
			c0.3231659-0.3929977,0.6127014-0.9976654,0.8686066-1.8138237l0.315506-1.0203362h-0.7651672l-3.6448212-10.4515648
			c0.3151245-0.1200924,0.6452484-0.1802292,0.9910736-0.1802292c0.3900757,0,0.7055817,0.1277695,0.945755,0.3829441
			c0.2401886,0.2555408,0.4204254,0.5556812,0.5406952,0.9009724l2.4779053,7.6810188l2.4775391-7.4783058
			c0.0449677-0.1650581,0.1049194-0.3339577,0.1802216-0.5066929c0.0749512-0.172554,0.1762085-0.3341408,0.3041687-0.4843941
			c0.1272278-0.1498871,0.2814941-0.2703457,0.461731-0.3602791c0.1802216-0.0901146,0.3977509-0.1352634,0.6532898-0.1352634
			c0.3001404,0,0.5779877,0.0676308,0.8331604,0.202713L142.953186,38.0482674z"/>
		<path class="st1" d="M153.9850769,27.8895302h7.162796v-6.3971004c0.059967,0,0.120285-0.0073109,0.1802368-0.0224838
			c0.0599518,0,0.1202698-0.0034733,0.1802368-0.0113316c0.0599518-0.0073128,0.1275787-0.0111504,0.2028961-0.0111504
			c0.1348877,0,0.2814941,0.0190086,0.4390564,0.0562992c0.1579285,0.0376549,0.3078156,0.1052856,0.4507599,0.202713
			c0.1422119,0.0977936,0.2624817,0.2403698,0.3600922,0.4279118c0.0976105,0.1879082,0.1466064,0.4319324,0.1466064,0.7320747
			v13.7176552h-1.9598846v-6.9827595h-7.162796v6.9827595h-1.9595184V21.4924297
			c0.0596008,0,0.1199188-0.0073109,0.1802368-0.0224838c0.0595856,0,0.1199036-0.0034733,0.1802368-0.0113316
			c0.0595856-0.0073128,0.1272125-0.0111504,0.2025299-0.0111504c0.1498871,0,0.3078156,0.0190086,0.473053,0.0562992
			c0.1652374,0.0376549,0.3154907,0.1052856,0.4503937,0.202713c0.1352692,0.0977936,0.2478638,0.2403698,0.3377991,0.4279118
			c0.0903015,0.1879082,0.1352692,0.4319324,0.1352692,0.7320747V27.8895302z"/>
		<path class="st1" d="M170.4184265,35.2777176c0.4354095,0,0.8145142-0.0451469,1.1376801-0.1352615
			c0.3228149-0.0901184,0.6002808-0.2027168,0.8331604-0.3377991s0.4317474-0.273819,0.5970001-0.4167595
			c0.1652374-0.1425781,0.3001404-0.273819,0.405426-0.3940964c0.1652374,0.210392,0.3114624,0.4355888,0.4394226,0.6757736
			c0.1272278,0.2403717,0.1911926,0.4279137,0.1911926,0.5629959c0,0.1215553-0.0376434,0.2467651-0.1125946,0.3763618
			c-0.0753021,0.1294174-0.2025299,0.2624893-0.3827667,0.3993988c-0.3454742,0.2590141-0.7885437,0.4761658-1.3288727,0.6510963
			c-0.5406952,0.1749306-1.193985,0.2624855-1.9598846,0.2624855c-0.7059326,0-1.3701935-0.101265-1.9934998-0.303978
			c-0.6229553-0.202713-1.1698608-0.5293617-1.6396332-0.9799385c-0.4701233-0.4503937-0.8419189-1.0395241-1.1150208-1.7681274
			c-0.2734528-0.7282333-0.4098053-1.6178741-0.4098053-2.669281c0-0.9459381,0.1385498-1.7642879,0.4167633-2.4550514
			c0.2774658-0.6905804,0.6419525-1.2575951,1.0923462-1.7006779c0.4503937-0.4427185,0.9647675-0.7693634,1.5427551-0.9797554
			c0.5779724-0.2102089,1.1749725-0.3154945,1.7909698-0.3154945c0.7658844,0,1.4224701,0.1277695,1.9708405,0.3829441
			c0.5480042,0.2555408,0.994751,0.5969925,1.3402252,1.0249043c0.3450928,0.4279099,0.6002808,0.9234543,0.7658844,1.4866295
			c0.1648712,0.5631771,0.2478638,1.1451797,0.2478638,1.7456455c0,0.2105732-0.0040283,0.4244385-0.0113373,0.6419582
			c-0.0076752,0.217886-0.0263214,0.4244385-0.0562897,0.6194744h-7.0955505
			c0.0453339,1.0896111,0.334137,1.9662743,0.8675232,2.6305313
			C168.4848785,34.9457741,169.3070679,35.2777176,170.4184265,35.2777176z M172.332962,30.2095013
			c0-0.4054279-0.0409393-0.7805138-0.1231995-1.1261692c-0.0826111-0.3452911-0.2208099-0.649271-0.4152985-0.9123058
			c-0.1941223-0.2624855-0.4522095-0.469038-0.7735596-0.6192913c-0.3217163-0.1500702-0.713974-0.2253799-1.177536-0.2253799
			c-0.7772217,0-1.416626,0.2555408-1.9174652,0.7658901c-0.5012054,0.5107155-0.78125,1.2162838-0.8412018,2.1172562H172.332962z"
			/>
		<path class="st1" d="M184.1357117,34.1288834c0,0.3604622,0.0149994,0.6419601,0.0453339,0.8446732
			c0.0296173,0.202713,0.0859222,0.3529663,0.1688995,0.4505768c0.0822601,0.0977936,0.1948547,0.1615868,0.3377991,0.1913834
			c0.1425781,0.0303421,0.3264618,0.0451469,0.551651,0.0451469v0.9009705
			c-0.1348877,0.0449677-0.3004913,0.0822563-0.4953461,0.1125984c-0.1952209,0.0299797-0.3981171,0.0449677-0.6083374,0.0449677
			c-0.4712219,0-0.8814087-0.0939522-1.2312622-0.2814941c-0.3498688-0.1875458-0.5549622-0.5215034-0.6156464-1.0024223
			c-0.3754425,0.3756332-0.8262024,0.6947861-1.3515472,0.9574547c-0.5256958,0.2624855-1.2162781,0.3940964-2.0720978,0.3940964
			c-0.3908081,0-0.7849121-0.0449677-1.182663-0.1350822c-0.3981171-0.0901184-0.7585754-0.2551765-1.0813751-0.4955444
			c-0.3228149-0.2400055-0.589325-0.5631752-0.79953-0.968605c-0.2105713-0.405426-0.3151245-0.9234543-0.3151245-1.5542641
			c0-0.7805138,0.1985016-1.4189987,0.5966187-1.9145412c0.3977509-0.4955425,0.8898315-0.8859825,1.4754791-1.1713181
			c0.5856628-0.2851524,1.2126312-0.4803715,1.8809204-0.585659c0.6679077-0.1049213,1.279892-0.16506,1.8355713-0.1802311
			c0.1352692,0,0.2928314,0,0.473053,0c0.1802368,0,0.3377991,0.0076771,0.4730682,0.0224838v-0.3377972
			c0-0.6757736-0.1615906-1.1899624-0.4843903-1.5429287c-0.3228149-0.352602-0.9424744-0.5293598-1.8582458-0.5293598
			c-0.6755981,0-1.2466278,0.0866413-1.7116394,0.2590122c-0.4657593,0.1727371-0.916153,0.4092674-1.3515625,0.7095909h-0.2251892
			c-0.120636-0.1950359-0.2219086-0.4054279-0.3041687-0.6308079c-0.0826111-0.2251968-0.1239319-0.4054279-0.1239319-0.5405102
			c0-0.1950359,0.1199188-0.3791065,0.3604736-0.5518436c0.2398071-0.1725521,0.551651-0.3266449,0.9347839-0.4617271
			c0.3827667-0.1352634,0.806839-0.2401848,1.272583-0.3154945c0.4653778-0.0749435,0.9234467-0.1125984,1.3738403-0.1125984
			c0.7658997,0,1.405304,0.0828037,1.9178467,0.2478619c0.5129089,0.1654263,0.9289246,0.4131069,1.2480774,0.7432251
			c0.3187866,0.3304844,0.5432587,0.7434063,0.6723022,1.2389507c0.1290588,0.4955425,0.1937561,1.0663967,0.1937561,1.7118282
			V34.1288834z M182.2438354,31.2457371h-0.6532898c-0.4807281,0-0.9684143,0.030344-1.4641418,0.0901165
			c-0.4953613,0.0601368-0.9461212,0.1727352-1.3515472,0.3377953c-0.405426,0.1654243-0.7359161,0.3942795-0.9910889,0.6871071
			c-0.2555389,0.2928314-0.3827667,0.679615-0.3827667,1.1599846c0,0.4505768,0.134903,0.8485107,0.405426,1.1938019
			c0.2701721,0.3456573,0.7732086,0.5180283,1.5091248,0.5180283c0.3904266,0,0.7618561-0.0563011,1.1150208-0.1688995
			c0.352417-0.1125984,0.6642456-0.2513351,0.9347839-0.4167595c0.2701569-0.165062,0.4843903-0.345108,0.6419525-0.5405121
			c0.1575623-0.195034,0.2365265-0.3829422,0.2365265-0.5631752V31.2457371z"/>
		<path class="st1" d="M188.7760315,34.4668617c0,0.2251968,0.007309,0.4165802,0.0222931,0.5743256
			c0.0149841,0.1575661,0.0563049,0.2893562,0.1239319,0.3940964c0.067627,0.1052856,0.1725464,0.1840706,0.3154907,0.2365303
			c0.1425781,0.0528259,0.3491364,0.0789642,0.6192932,0.0789642v0.8108559
			c-0.1348877,0.0449677-0.3191528,0.0822563-0.551651,0.1125984c-0.2332458,0.0299797-0.461731,0.0449677-0.6873016,0.0449677
			c-0.4353943,0-0.7695465-0.0674477-1.0020447-0.202713c-0.2332458-0.1350822-0.405426-0.3153114-0.5180359-0.5405121
			c-0.1129608-0.2251968-0.1802216-0.476532-0.2028961-0.7545547c-0.0226593-0.2776604-0.0336304-0.5518456-0.0336304-0.8221893
			V20.6139412h0.134903c0.0299683,0,0.0712891-0.0034733,0.1239319-0.0111504
			c0.0526428-0.007494,0.1012573-0.0113335,0.1465912-0.0113335c0.4200592,0,0.7768555,0.1091251,1.0696869,0.3266468
			c0.2928314,0.2178841,0.4394379,0.6119804,0.4394379,1.1824684V34.4668617z"/>
		<path class="st1" d="M191.6577454,35.2325706c-0.1052856-0.2849693-0.1692657-0.5968094-0.1915588-0.9347878
			c-0.0226746-0.3377953-0.0340118-0.6717529-0.0340118-1.0022392V22.7538624h0.1352692
			c0.0299835,0,0.0712891-0.0034714,0.1239319-0.0113316c0.0522766-0.0073128,0.1012726-0.0111504,0.1466064-0.0111504
			c0.405426,0,0.757843,0.1045551,1.0583496,0.313118c0.3005066,0.2091122,0.4507599,0.5893154,0.4507599,1.1407928v1.7896976
			h3.3560181v1.6441956h-3.3560181v5.8114414c0,1.2314568,0.4876862,1.8470917,1.4641418,1.8470917
			c0.2398224,0,0.4650269-0.0413094,0.6755981-0.1239319c0.2102051-0.0824356,0.3977509-0.1802292,0.5629883-0.2928276
			s0.3041687-0.2213593,0.4167633-0.3266449c0.1125946-0.1049232,0.1838837-0.180233,0.2142334-0.2251968
			c0.1798553,0.2251968,0.3337708,0.4430809,0.461731,0.6532898c0.1272125,0.210392,0.1911926,0.413105,0.1911926,0.6081429
			c0,0.1350822-0.067627,0.2814941-0.2025299,0.4392433c-0.1352692,0.1575661-0.3231812,0.3039818-0.5633545,0.4392433
			c-0.2401886,0.1350822-0.5370483,0.2476807-0.8894653,0.3377991c-0.3531494,0.0901146-0.7399292,0.1350784-1.1599884,0.1350784
			c-0.7812347,0-1.4045563-0.1502533-1.8695679-0.4503937C192.1830902,36.171196,191.8526001,35.7584572,191.6577454,35.2325706z"/>
		<path class="st1" d="M205.9849701,30.2546501c0-0.2851524-0.0040283-0.5593376-0.0113373-0.8221893
			c-0.0076752-0.2624855-0.0489807-0.506876-0.1239319-0.7320747c-0.1052856-0.390255-0.3231659-0.6905804-0.6532898-0.9009705
			c-0.3304749-0.2100258-0.8185272-0.3153133-1.4641418-0.3153133c-0.4204254,0-0.8072052,0.0489883-1.1599884,0.1464157
			c-0.3527832,0.0977917-0.6532898,0.2217236-0.9007874,0.3716106c-0.2478638,0.1502533-0.4394226,0.3231735-0.5746918,0.5180283
			c-0.134903,0.1954021-0.2025299,0.3908043-0.2025299,0.585659v7.478302h-1.9145508V20.6139412h0.1126099
			c0.0299683,0,0.0709229-0.0034733,0.1239319-0.0111504c0.0522766-0.007494,0.1012573-0.0113335,0.146225-0.0113335
			c0.4204254,0,0.7772217,0.1052876,1.0700531,0.3153133c0.2928314,0.2105732,0.4390564,0.6008301,0.4390564,1.1713181v5.0005856
			c0.3904419-0.4354057,0.8858032-0.7658901,1.4868164-0.991087c0.6002808-0.2253799,1.2389526-0.3379784,1.9145508-0.3379784
			c0.5253296,0,0.9870605,0.0641594,1.3851776,0.1915627c0.3977509,0.1277714,0.7355499,0.3005066,1.0137482,0.5180283
			c0.2774811,0.2178841,0.5066986,0.4695873,0.6869354,0.7545567c0.1802216,0.2855167,0.3078156,0.585659,0.3831177,0.9009705
			c0.0749512,0.3006897,0.1199188,0.6346474,0.134903,1.0024204c0.0149841,0.3681393,0.0226593,0.7245808,0.0226593,1.06987
			v6.3971004h-1.9145355V30.2546501z"/>
	</g>
	<path class="st2" d="M248.7482147,14.7189837c0.2504578,0.1383505,0.2937775,0.4405708,0.2181702,0.5868111
		c-0.075592,0.1462402-9.3964233,17.7603035-9.4390411,17.8402328c-0.0497131,0.0932121-0.1520538,0.2081604-0.3246613,0.2397728
		c-0.1725922,0.0316162-17.2978516,3.1695175-17.3990479,3.1869774c-0.6435394,0.1110115-0.9954224-0.7048836-0.4799194-1.1008797
		c0.477066-0.3664627,9.3870544-7.222456,9.3870544-7.222456s-14.2800446-8.8804321-14.4845123-9.0080185
		c-0.5280304-0.3294868-0.3482208-1.1434517,0.273941-1.2098713c0.6036224-0.0644417,12.961792-1.3639412,12.961792-1.3639412
		s-8.6322021-15.3926249-8.8035583-15.6963968c-0.3151703-0.5587338,0.2928467-1.2057834,0.8882446-0.8865858
		C222.1399841,0.4027074,248.7482147,14.7189837,248.7482147,14.7189837z"/>
	<path class="st3" d="M248.7482147,14.7189837c0.2504578,0.1383505,0.2937775,0.4405708,0.2181702,0.5868111
		c-0.075592,0.1462402-9.3964233,17.7603035-9.4390411,17.8402328c-0.0497131,0.0932121-0.1520538,0.2081604-0.3246613,0.2397728
		c-0.1725922,0.0316162-0.3008423-0.0429192-0.3288727-0.0598679c-0.0580597-0.0351105-8.1631775-5.0767097-8.1631775-5.0767097
		l3.665802-2.8202915l-4.914444-8.7613201l19.0235748-2.0017977
		C248.6349487,14.6514492,248.7482147,14.7189837,248.7482147,14.7189837z"/>
	<path class="st4" d="M248.7482147,14.7189837c0.2504578,0.1383505,0.2937775,0.4405708,0.2181702,0.5868111
		c-0.075592,0.1462402-9.3964233,17.7603035-9.4390411,17.8402328c-0.0497131,0.0932121-0.1520538,0.2081604-0.3246613,0.2397728
		c-0.1725922,0.0316162-0.3008423-0.0429192-0.3288727-0.0598679c-0.0041351-0.0025024-0.0969849-0.0524254-0.1579742-0.1609344
		l-4.3394012-7.7360668l13.8667603-10.6695623c0.0731049-0.0531158,0.1403961-0.0830336,0.2423706-0.0935555
		C248.6325836,14.6506462,248.7482147,14.7189837,248.7482147,14.7189837z"/>
</g>
</svg>
